<svg xmlns="http://www.w3.org/2000/svg" xmlns:xlink="http://www.w3.org/1999/xlink" width="366" zoomAndPan="magnify" viewBox="0 0 274.5 125.249995" height="167" preserveAspectRatio="xMidYMid meet" version="1.2"><defs/><g id="25d96238a7"><g style="fill:currentColor;fill-opacity:1;"><g transform="translate(2.618008, 108.325264)"><path style="stroke:none" d="M 7.90625 -2 L 3.5625 -2 L 2.75 0 L -0.203125 0 L 4.328125 -10.265625 L 7.1875 -10.265625 L 11.71875 0 L 8.703125 0 Z M 7.046875 -4.140625 L 5.734375 -7.421875 L 4.40625 -4.140625 Z M 7.046875 -4.140625 "/></g></g><g style="fill:currentColor;fill-opacity:1;"><g transform="translate(14.139754, 108.325264)"><path style="stroke:none" d="M 7.90625 -2 L 3.5625 -2 L 2.75 0 L -0.203125 0 L 4.328125 -10.265625 L 7.1875 -10.265625 L 11.71875 0 L 8.703125 0 Z M 7.046875 -4.140625 L 5.734375 -7.421875 L 4.40625 -4.140625 Z M 7.046875 -4.140625 "/></g></g><g style="fill:#000000;fill-opacity:1;"><g transform="translate(25.661501, 108.325264)"><path style="stroke:none" d="M 1.03125 -10.265625 L 5.875 -10.265625 C 7 -10.265625 7.992188 -10.050781 8.859375 -9.625 C 9.734375 -9.207031 10.410156 -8.613281 10.890625 -7.84375 C 11.367188 -7.070312 11.609375 -6.164062 11.609375 -5.125 C 11.609375 -4.09375 11.367188 -3.191406 10.890625 -2.421875 C 10.410156 -1.648438 9.734375 -1.050781 8.859375 -0.625 C 7.992188 -0.207031 7 0 5.875 0 L 1.03125 0 Z M 5.765625 -2.3125 C 6.640625 -2.3125 7.34375 -2.5625 7.875 -3.0625 C 8.40625 -3.5625 8.671875 -4.25 8.671875 -5.125 C 8.671875 -6.007812 8.40625 -6.695312 7.875 -7.1875 C 7.34375 -7.6875 6.640625 -7.9375 5.765625 -7.9375 L 3.921875 -7.9375 L 3.921875 -2.3125 Z M 5.765625 -2.3125 "/></g></g><g style="fill:#000000;fill-opacity:1;"><g transform="translate(37.769598, 108.325264)"><path style="stroke:none" d="M 6.515625 -3.671875 L 6.515625 0 L 3.625 0 L 3.625 -3.71875 L -0.296875 -10.265625 L 2.765625 -10.265625 L 5.203125 -6.1875 L 7.640625 -10.265625 L 10.453125 -10.265625 Z M 6.515625 -3.671875 "/></g></g><g style="fill:#000000;fill-opacity:1;"><g transform="translate(47.928087, 108.325264)"><path style="stroke:none" d="M 7.90625 -2 L 3.5625 -2 L 2.75 0 L -0.203125 0 L 4.328125 -10.265625 L 7.1875 -10.265625 L 11.71875 0 L 8.703125 0 Z M 7.046875 -4.140625 L 5.734375 -7.421875 L 4.40625 -4.140625 Z M 7.046875 -4.140625 "/></g></g><g style="fill:#000000;fill-opacity:1;"><g transform="translate(59.449834, 108.325264)"><path style="stroke:none" d=""/></g></g><g style="fill:#000000;fill-opacity:1;"><g transform="translate(63.715522, 108.325264)"><path style="stroke:none" d="M 3.203125 -7.953125 L 0.0625 -7.953125 L 0.0625 -10.265625 L 9.25 -10.265625 L 9.25 -7.953125 L 6.109375 -7.953125 L 6.109375 0 L 3.203125 0 Z M 3.203125 -7.953125 "/></g></g><g style="fill:#000000;fill-opacity:1;"><g transform="translate(73.023805, 108.325264)"><path style="stroke:none" d="M 9.265625 -2.25 L 9.265625 0 L 1.03125 0 L 1.03125 -10.265625 L 9.078125 -10.265625 L 9.078125 -8.015625 L 3.90625 -8.015625 L 3.90625 -6.28125 L 8.453125 -6.28125 L 8.453125 -4.125 L 3.90625 -4.125 L 3.90625 -2.25 Z M 9.265625 -2.25 "/></g></g><g style="fill:#000000;fill-opacity:1;"><g transform="translate(82.874464, 108.325264)"><path style="stroke:none" d="M 6.140625 0.203125 C 5.066406 0.203125 4.101562 -0.0195312 3.25 -0.46875 C 2.394531 -0.925781 1.722656 -1.5625 1.234375 -2.375 C 0.742188 -3.1875 0.5 -4.101562 0.5 -5.125 C 0.5 -6.15625 0.742188 -7.078125 1.234375 -7.890625 C 1.722656 -8.703125 2.394531 -9.332031 3.25 -9.78125 C 4.101562 -10.238281 5.066406 -10.46875 6.140625 -10.46875 C 7.078125 -10.46875 7.921875 -10.300781 8.671875 -9.96875 C 9.429688 -9.632812 10.054688 -9.15625 10.546875 -8.53125 L 8.703125 -6.859375 C 8.035156 -7.660156 7.226562 -8.0625 6.28125 -8.0625 C 5.726562 -8.0625 5.234375 -7.9375 4.796875 -7.6875 C 4.359375 -7.445312 4.019531 -7.101562 3.78125 -6.65625 C 3.539062 -6.21875 3.421875 -5.707031 3.421875 -5.125 C 3.421875 -4.550781 3.539062 -4.039062 3.78125 -3.59375 C 4.019531 -3.15625 4.359375 -2.8125 4.796875 -2.5625 C 5.234375 -2.320312 5.726562 -2.203125 6.28125 -2.203125 C 7.226562 -2.203125 8.035156 -2.601562 8.703125 -3.40625 L 10.546875 -1.734375 C 10.054688 -1.109375 9.429688 -0.628906 8.671875 -0.296875 C 7.921875 0.0351562 7.078125 0.203125 6.140625 0.203125 Z M 6.140625 0.203125 "/></g></g><g style="fill:#000000;fill-opacity:1;"><g transform="translate(93.692597, 108.325264)"><path style="stroke:none" d="M 10.78125 -10.265625 L 10.78125 0 L 7.890625 0 L 7.890625 -4 L 3.921875 -4 L 3.921875 0 L 1.03125 0 L 1.03125 -10.265625 L 3.921875 -10.265625 L 3.921875 -6.40625 L 7.890625 -6.40625 L 7.890625 -10.265625 Z M 10.78125 -10.265625 "/></g></g><g style="fill:#000000;fill-opacity:1;"><g transform="translate(105.507522, 108.325264)"><path style="stroke:none" d="M 10.78125 -10.265625 L 10.78125 0 L 8.390625 0 L 3.875 -5.46875 L 3.875 0 L 1.03125 0 L 1.03125 -10.265625 L 3.421875 -10.265625 L 7.9375 -4.796875 L 7.9375 -10.265625 Z M 10.78125 -10.265625 "/></g></g><g style="fill:#000000;fill-opacity:1;"><g transform="translate(117.322454, 108.325264)"><path style="stroke:none" d="M 6.203125 0.203125 C 5.117188 0.203125 4.144531 -0.0234375 3.28125 -0.484375 C 2.414062 -0.941406 1.734375 -1.578125 1.234375 -2.390625 C 0.742188 -3.203125 0.5 -4.113281 0.5 -5.125 C 0.5 -6.144531 0.742188 -7.0625 1.234375 -7.875 C 1.734375 -8.6875 2.414062 -9.320312 3.28125 -9.78125 C 4.144531 -10.238281 5.117188 -10.46875 6.203125 -10.46875 C 7.285156 -10.46875 8.257812 -10.238281 9.125 -9.78125 C 9.988281 -9.320312 10.664062 -8.6875 11.15625 -7.875 C 11.65625 -7.0625 11.90625 -6.144531 11.90625 -5.125 C 11.90625 -4.113281 11.65625 -3.203125 11.15625 -2.390625 C 10.664062 -1.578125 9.988281 -0.941406 9.125 -0.484375 C 8.257812 -0.0234375 7.285156 0.203125 6.203125 0.203125 Z M 6.203125 -2.203125 C 6.710938 -2.203125 7.175781 -2.320312 7.59375 -2.5625 C 8.019531 -2.8125 8.351562 -3.15625 8.59375 -3.59375 C 8.84375 -4.039062 8.96875 -4.550781 8.96875 -5.125 C 8.96875 -5.707031 8.84375 -6.21875 8.59375 -6.65625 C 8.351562 -7.101562 8.019531 -7.445312 7.59375 -7.6875 C 7.175781 -7.9375 6.710938 -8.0625 6.203125 -8.0625 C 5.679688 -8.0625 5.207031 -7.9375 4.78125 -7.6875 C 4.363281 -7.445312 4.03125 -7.101562 3.78125 -6.65625 C 3.539062 -6.21875 3.421875 -5.707031 3.421875 -5.125 C 3.421875 -4.550781 3.539062 -4.039062 3.78125 -3.59375 C 4.03125 -3.15625 4.363281 -2.8125 4.78125 -2.5625 C 5.207031 -2.320312 5.679688 -2.203125 6.203125 -2.203125 Z M 6.203125 -2.203125 "/></g></g><g style="fill:#000000;fill-opacity:1;"><g transform="translate(129.723717, 108.325264)"><path style="stroke:none" d="M 1.03125 -10.265625 L 3.921875 -10.265625 L 3.921875 -2.296875 L 8.828125 -2.296875 L 8.828125 0 L 1.03125 0 Z M 1.03125 -10.265625 "/></g></g><g style="fill:#000000;fill-opacity:1;"><g transform="translate(138.665535, 108.325264)"><path style="stroke:none" d="M 6.203125 0.203125 C 5.117188 0.203125 4.144531 -0.0234375 3.28125 -0.484375 C 2.414062 -0.941406 1.734375 -1.578125 1.234375 -2.390625 C 0.742188 -3.203125 0.5 -4.113281 0.5 -5.125 C 0.5 -6.144531 0.742188 -7.0625 1.234375 -7.875 C 1.734375 -8.6875 2.414062 -9.320312 3.28125 -9.78125 C 4.144531 -10.238281 5.117188 -10.46875 6.203125 -10.46875 C 7.285156 -10.46875 8.257812 -10.238281 9.125 -9.78125 C 9.988281 -9.320312 10.664062 -8.6875 11.15625 -7.875 C 11.65625 -7.0625 11.90625 -6.144531 11.90625 -5.125 C 11.90625 -4.113281 11.65625 -3.203125 11.15625 -2.390625 C 10.664062 -1.578125 9.988281 -0.941406 9.125 -0.484375 C 8.257812 -0.0234375 7.285156 0.203125 6.203125 0.203125 Z M 6.203125 -2.203125 C 6.710938 -2.203125 7.175781 -2.320312 7.59375 -2.5625 C 8.019531 -2.8125 8.351562 -3.15625 8.59375 -3.59375 C 8.84375 -4.039062 8.96875 -4.550781 8.96875 -5.125 C 8.96875 -5.707031 8.84375 -6.21875 8.59375 -6.65625 C 8.351562 -7.101562 8.019531 -7.445312 7.59375 -7.6875 C 7.175781 -7.9375 6.710938 -8.0625 6.203125 -8.0625 C 5.679688 -8.0625 5.207031 -7.9375 4.78125 -7.6875 C 4.363281 -7.445312 4.03125 -7.101562 3.78125 -6.65625 C 3.539062 -6.21875 3.421875 -5.707031 3.421875 -5.125 C 3.421875 -4.550781 3.539062 -4.039062 3.78125 -3.59375 C 4.03125 -3.15625 4.363281 -2.8125 4.78125 -2.5625 C 5.207031 -2.320312 5.679688 -2.203125 6.203125 -2.203125 Z M 6.203125 -2.203125 "/></g></g><g style="fill:#000000;fill-opacity:1;"><g transform="translate(151.066798, 108.325264)"><path style="stroke:none" d="M 7.90625 -5.34375 L 10.46875 -5.34375 L 10.46875 -1.09375 C 9.875 -0.675781 9.195312 -0.351562 8.4375 -0.125 C 7.675781 0.09375 6.914062 0.203125 6.15625 0.203125 C 5.082031 0.203125 4.113281 -0.0195312 3.25 -0.46875 C 2.394531 -0.925781 1.722656 -1.5625 1.234375 -2.375 C 0.742188 -3.1875 0.5 -4.101562 0.5 -5.125 C 0.5 -6.15625 0.742188 -7.078125 1.234375 -7.890625 C 1.722656 -8.703125 2.398438 -9.332031 3.265625 -9.78125 C 4.140625 -10.238281 5.125 -10.46875 6.21875 -10.46875 C 7.175781 -10.46875 8.035156 -10.304688 8.796875 -9.984375 C 9.554688 -9.660156 10.191406 -9.195312 10.703125 -8.59375 L 8.859375 -6.921875 C 8.160156 -7.679688 7.328125 -8.0625 6.359375 -8.0625 C 5.484375 -8.0625 4.773438 -7.796875 4.234375 -7.265625 C 3.691406 -6.734375 3.421875 -6.019531 3.421875 -5.125 C 3.421875 -4.5625 3.539062 -4.054688 3.78125 -3.609375 C 4.03125 -3.171875 4.375 -2.828125 4.8125 -2.578125 C 5.257812 -2.328125 5.765625 -2.203125 6.328125 -2.203125 C 6.890625 -2.203125 7.414062 -2.3125 7.90625 -2.53125 Z M 7.90625 -5.34375 "/></g></g><g style="fill:#000000;fill-opacity:1;"><g transform="translate(162.35402, 108.325264)"><path style="stroke:none" d="M 6.515625 -3.671875 L 6.515625 0 L 3.625 0 L 3.625 -3.71875 L -0.296875 -10.265625 L 2.765625 -10.265625 L 5.203125 -6.1875 L 7.640625 -10.265625 L 10.453125 -10.265625 Z M 6.515625 -3.671875 "/></g></g><g style="fill:#000000;fill-opacity:1;"><g transform="translate(172.512496, 108.325264)"><path style="stroke:none" d=""/></g></g><g style="fill:#000000;fill-opacity:1;"><g transform="translate(176.778197, 108.325264)"><path style="stroke:none" d="M 4.625 0.203125 C 3.800781 0.203125 3 0.101562 2.21875 -0.09375 C 1.4375 -0.300781 0.800781 -0.578125 0.3125 -0.921875 L 1.265625 -3.0625 C 1.722656 -2.757812 2.253906 -2.515625 2.859375 -2.328125 C 3.460938 -2.140625 4.054688 -2.046875 4.640625 -2.046875 C 5.753906 -2.046875 6.3125 -2.328125 6.3125 -2.890625 C 6.3125 -3.179688 6.148438 -3.394531 5.828125 -3.53125 C 5.515625 -3.675781 5.007812 -3.828125 4.3125 -3.984375 C 3.539062 -4.148438 2.894531 -4.328125 2.375 -4.515625 C 1.851562 -4.710938 1.40625 -5.019531 1.03125 -5.4375 C 0.664062 -5.851562 0.484375 -6.421875 0.484375 -7.140625 C 0.484375 -7.765625 0.65625 -8.328125 1 -8.828125 C 1.34375 -9.328125 1.851562 -9.722656 2.53125 -10.015625 C 3.207031 -10.316406 4.039062 -10.46875 5.03125 -10.46875 C 5.695312 -10.46875 6.359375 -10.390625 7.015625 -10.234375 C 7.671875 -10.085938 8.25 -9.867188 8.75 -9.578125 L 7.859375 -7.421875 C 6.878906 -7.941406 5.929688 -8.203125 5.015625 -8.203125 C 4.429688 -8.203125 4.007812 -8.113281 3.75 -7.9375 C 3.488281 -7.769531 3.359375 -7.550781 3.359375 -7.28125 C 3.359375 -7.007812 3.515625 -6.804688 3.828125 -6.671875 C 4.140625 -6.535156 4.640625 -6.394531 5.328125 -6.25 C 6.109375 -6.082031 6.753906 -5.898438 7.265625 -5.703125 C 7.785156 -5.515625 8.234375 -5.210938 8.609375 -4.796875 C 8.984375 -4.378906 9.171875 -3.816406 9.171875 -3.109375 C 9.171875 -2.492188 9 -1.9375 8.65625 -1.4375 C 8.320312 -0.9375 7.8125 -0.535156 7.125 -0.234375 C 6.4375 0.0546875 5.601562 0.203125 4.625 0.203125 Z M 4.625 0.203125 "/></g></g><g style="fill:#000000;fill-opacity:1;"><g transform="translate(186.262377, 108.325264)"><path style="stroke:none" d="M 6.203125 0.203125 C 5.117188 0.203125 4.144531 -0.0234375 3.28125 -0.484375 C 2.414062 -0.941406 1.734375 -1.578125 1.234375 -2.390625 C 0.742188 -3.203125 0.5 -4.113281 0.5 -5.125 C 0.5 -6.144531 0.742188 -7.0625 1.234375 -7.875 C 1.734375 -8.6875 2.414062 -9.320312 3.28125 -9.78125 C 4.144531 -10.238281 5.117188 -10.46875 6.203125 -10.46875 C 7.285156 -10.46875 8.257812 -10.238281 9.125 -9.78125 C 9.988281 -9.320312 10.664062 -8.6875 11.15625 -7.875 C 11.65625 -7.0625 11.90625 -6.144531 11.90625 -5.125 C 11.90625 -4.113281 11.65625 -3.203125 11.15625 -2.390625 C 10.664062 -1.578125 9.988281 -0.941406 9.125 -0.484375 C 8.257812 -0.0234375 7.285156 0.203125 6.203125 0.203125 Z M 6.203125 -2.203125 C 6.710938 -2.203125 7.175781 -2.320312 7.59375 -2.5625 C 8.019531 -2.8125 8.351562 -3.15625 8.59375 -3.59375 C 8.84375 -4.039062 8.96875 -4.550781 8.96875 -5.125 C 8.96875 -5.707031 8.84375 -6.21875 8.59375 -6.65625 C 8.351562 -7.101562 8.019531 -7.445312 7.59375 -7.6875 C 7.175781 -7.9375 6.710938 -8.0625 6.203125 -8.0625 C 5.679688 -8.0625 5.207031 -7.9375 4.78125 -7.6875 C 4.363281 -7.445312 4.03125 -7.101562 3.78125 -6.65625 C 3.539062 -6.21875 3.421875 -5.707031 3.421875 -5.125 C 3.421875 -4.550781 3.539062 -4.039062 3.78125 -3.59375 C 4.03125 -3.15625 4.363281 -2.8125 4.78125 -2.5625 C 5.207031 -2.320312 5.679688 -2.203125 6.203125 -2.203125 Z M 6.203125 -2.203125 "/></g></g><g style="fill:#000000;fill-opacity:1;"><g transform="translate(198.66364, 108.325264)"><path style="stroke:none" d="M 1.03125 -10.265625 L 3.921875 -10.265625 L 3.921875 -2.296875 L 8.828125 -2.296875 L 8.828125 0 L 1.03125 0 Z M 1.03125 -10.265625 "/></g></g><g style="fill:#000000;fill-opacity:1;"><g transform="translate(207.605458, 108.325264)"><path style="stroke:none" d="M 5.765625 0.203125 C 4.234375 0.203125 3.046875 -0.207031 2.203125 -1.03125 C 1.359375 -1.863281 0.9375 -3.046875 0.9375 -4.578125 L 0.9375 -10.265625 L 3.84375 -10.265625 L 3.84375 -4.65625 C 3.84375 -3.019531 4.492188 -2.203125 5.796875 -2.203125 C 7.078125 -2.203125 7.71875 -3.019531 7.71875 -4.65625 L 7.71875 -10.265625 L 10.578125 -10.265625 L 10.578125 -4.578125 C 10.578125 -3.046875 10.15625 -1.863281 9.3125 -1.03125 C 8.46875 -0.207031 7.285156 0.203125 5.765625 0.203125 Z M 5.765625 0.203125 "/></g></g><g style="fill:#000000;fill-opacity:1;"><g transform="translate(219.127218, 108.325264)"><path style="stroke:none" d="M 3.203125 -7.953125 L 0.0625 -7.953125 L 0.0625 -10.265625 L 9.25 -10.265625 L 9.25 -7.953125 L 6.109375 -7.953125 L 6.109375 0 L 3.203125 0 Z M 3.203125 -7.953125 "/></g></g><g style="fill:#000000;fill-opacity:1;"><g transform="translate(228.435481, 108.325264)"><path style="stroke:none" d="M 1.03125 -10.265625 L 3.921875 -10.265625 L 3.921875 0 L 1.03125 0 Z M 1.03125 -10.265625 "/></g></g><g style="fill:#000000;fill-opacity:1;"><g transform="translate(233.404796, 108.325264)"><path style="stroke:none" d="M 6.203125 0.203125 C 5.117188 0.203125 4.144531 -0.0234375 3.28125 -0.484375 C 2.414062 -0.941406 1.734375 -1.578125 1.234375 -2.390625 C 0.742188 -3.203125 0.5 -4.113281 0.5 -5.125 C 0.5 -6.144531 0.742188 -7.0625 1.234375 -7.875 C 1.734375 -8.6875 2.414062 -9.320312 3.28125 -9.78125 C 4.144531 -10.238281 5.117188 -10.46875 6.203125 -10.46875 C 7.285156 -10.46875 8.257812 -10.238281 9.125 -9.78125 C 9.988281 -9.320312 10.664062 -8.6875 11.15625 -7.875 C 11.65625 -7.0625 11.90625 -6.144531 11.90625 -5.125 C 11.90625 -4.113281 11.65625 -3.203125 11.15625 -2.390625 C 10.664062 -1.578125 9.988281 -0.941406 9.125 -0.484375 C 8.257812 -0.0234375 7.285156 0.203125 6.203125 0.203125 Z M 6.203125 -2.203125 C 6.710938 -2.203125 7.175781 -2.320312 7.59375 -2.5625 C 8.019531 -2.8125 8.351562 -3.15625 8.59375 -3.59375 C 8.84375 -4.039062 8.96875 -4.550781 8.96875 -5.125 C 8.96875 -5.707031 8.84375 -6.21875 8.59375 -6.65625 C 8.351562 -7.101562 8.019531 -7.445312 7.59375 -7.6875 C 7.175781 -7.9375 6.710938 -8.0625 6.203125 -8.0625 C 5.679688 -8.0625 5.207031 -7.9375 4.78125 -7.6875 C 4.363281 -7.445312 4.03125 -7.101562 3.78125 -6.65625 C 3.539062 -6.21875 3.421875 -5.707031 3.421875 -5.125 C 3.421875 -4.550781 3.539062 -4.039062 3.78125 -3.59375 C 4.03125 -3.15625 4.363281 -2.8125 4.78125 -2.5625 C 5.207031 -2.320312 5.679688 -2.203125 6.203125 -2.203125 Z M 6.203125 -2.203125 "/></g></g><g style="fill:#000000;fill-opacity:1;"><g transform="translate(245.806072, 108.325264)"><path style="stroke:none" d="M 10.78125 -10.265625 L 10.78125 0 L 8.390625 0 L 3.875 -5.46875 L 3.875 0 L 1.03125 0 L 1.03125 -10.265625 L 3.421875 -10.265625 L 7.9375 -4.796875 L 7.9375 -10.265625 Z M 10.78125 -10.265625 "/></g></g><g style="fill:#000000;fill-opacity:1;"><g transform="translate(257.621004, 108.325264)"><path style="stroke:none" d="M 4.625 0.203125 C 3.800781 0.203125 3 0.101562 2.21875 -0.09375 C 1.4375 -0.300781 0.800781 -0.578125 0.3125 -0.921875 L 1.265625 -3.0625 C 1.722656 -2.757812 2.253906 -2.515625 2.859375 -2.328125 C 3.460938 -2.140625 4.054688 -2.046875 4.640625 -2.046875 C 5.753906 -2.046875 6.3125 -2.328125 6.3125 -2.890625 C 6.3125 -3.179688 6.148438 -3.394531 5.828125 -3.53125 C 5.515625 -3.675781 5.007812 -3.828125 4.3125 -3.984375 C 3.539062 -4.148438 2.894531 -4.328125 2.375 -4.515625 C 1.851562 -4.710938 1.40625 -5.019531 1.03125 -5.4375 C 0.664062 -5.851562 0.484375 -6.421875 0.484375 -7.140625 C 0.484375 -7.765625 0.65625 -8.328125 1 -8.828125 C 1.34375 -9.328125 1.851562 -9.722656 2.53125 -10.015625 C 3.207031 -10.316406 4.039062 -10.46875 5.03125 -10.46875 C 5.695312 -10.46875 6.359375 -10.390625 7.015625 -10.234375 C 7.671875 -10.085938 8.25 -9.867188 8.75 -9.578125 L 7.859375 -7.421875 C 6.878906 -7.941406 5.929688 -8.203125 5.015625 -8.203125 C 4.429688 -8.203125 4.007812 -8.113281 3.75 -7.9375 C 3.488281 -7.769531 3.359375 -7.550781 3.359375 -7.28125 C 3.359375 -7.007812 3.515625 -6.804688 3.828125 -6.671875 C 4.140625 -6.535156 4.640625 -6.394531 5.328125 -6.25 C 6.109375 -6.082031 6.753906 -5.898438 7.265625 -5.703125 C 7.785156 -5.515625 8.234375 -5.210938 8.609375 -4.796875 C 8.984375 -4.378906 9.171875 -3.816406 9.171875 -3.109375 C 9.171875 -2.492188 9 -1.9375 8.65625 -1.4375 C 8.320312 -0.9375 7.8125 -0.535156 7.125 -0.234375 C 6.4375 0.0546875 5.601562 0.203125 4.625 0.203125 Z M 4.625 0.203125 "/></g></g><g style="fill:#000000;fill-opacity:1;"><g transform="translate(267.109795, 108.325264)"><path style="stroke:none" d=""/></g></g><g style="fill:#000000;fill-opacity:1;"><g transform="translate(126.28381, 75.93831)"><path style="stroke:none" d="M 8.90625 -5.34375 C 9.5 -5.144531 9.957031 -4.828125 10.28125 -4.390625 C 10.613281 -3.953125 10.78125 -3.425781 10.78125 -2.8125 C 10.78125 -1.914062 10.421875 -1.222656 9.703125 -0.734375 C 8.984375 -0.242188 7.9375 0 6.5625 0 L 1.03125 0 L 1.03125 -10.265625 L 6.265625 -10.265625 C 7.578125 -10.265625 8.570312 -10.019531 9.25 -9.53125 C 9.9375 -9.050781 10.28125 -8.398438 10.28125 -7.578125 C 10.28125 -7.085938 10.160156 -6.648438 9.921875 -6.265625 C 9.691406 -5.878906 9.351562 -5.570312 8.90625 -5.34375 Z M 3.90625 -8.15625 L 3.90625 -6.1875 L 5.890625 -6.1875 C 6.867188 -6.1875 7.359375 -6.519531 7.359375 -7.1875 C 7.359375 -7.832031 6.867188 -8.15625 5.890625 -8.15625 Z M 6.328125 -2.09375 C 7.347656 -2.09375 7.859375 -2.441406 7.859375 -3.140625 C 7.859375 -3.828125 7.347656 -4.171875 6.328125 -4.171875 L 3.90625 -4.171875 L 3.90625 -2.09375 Z M 6.328125 -2.09375 "/></g></g><g style="fill:#000000;fill-opacity:1;"><g transform="translate(137.55636, 75.93831)"><path style="stroke:none" d="M 6.515625 -3.671875 L 6.515625 0 L 3.625 0 L 3.625 -3.71875 L -0.296875 -10.265625 L 2.765625 -10.265625 L 5.203125 -6.1875 L 7.640625 -10.265625 L 10.453125 -10.265625 Z M 6.515625 -3.671875 "/></g></g><g style="fill:#000000;fill-opacity:1;"><g transform="translate(72.476624, 50.588723)"><path style="stroke:none" d="M 0.703125 -32.796875 L 14.46875 -32.796875 C 19.1875 -32.796875 22.703125 -32.113281 25.015625 -30.75 C 27.328125 -29.394531 28.484375 -26.96875 28.484375 -23.46875 C 28.484375 -19.59375 27.078125 -16.921875 24.265625 -15.453125 C 21.640625 -14.109375 17.96875 -13.4375 13.25 -13.4375 L 12.875 -13.4375 L 12.875 -0.890625 L 18.734375 -0.890625 L 18.734375 0 L 0.703125 0 L 0.703125 -0.890625 L 3.75 -0.890625 L 3.75 -31.90625 L 0.703125 -31.90625 Z M 12.875 -31.90625 L 12.875 -14.328125 L 13.859375 -14.328125 C 15.734375 -14.328125 17.03125 -14.96875 17.75 -16.25 C 18.46875 -17.53125 18.828125 -19.609375 18.828125 -22.484375 L 18.828125 -24.734375 C 18.828125 -27.390625 18.488281 -29.25 17.8125 -30.3125 C 17.144531 -31.375 15.921875 -31.90625 14.140625 -31.90625 Z M 12.875 -31.90625 "/></g></g><g style="fill:#000000;fill-opacity:1;"><g transform="translate(102.169126, 50.588723)"><path style="stroke:none" d="M 15.59375 -9.234375 L 15.59375 -13.203125 C 15.59375 -16.234375 15.425781 -18.441406 15.09375 -19.828125 C 14.769531 -21.222656 14.015625 -21.921875 12.828125 -21.921875 C 12.140625 -21.921875 11.585938 -21.722656 11.171875 -21.328125 C 10.753906 -20.941406 10.453125 -20.296875 10.265625 -19.390625 C 9.984375 -17.984375 9.84375 -15.84375 9.84375 -12.96875 L 9.84375 -9.328125 C 9.84375 -5.921875 9.941406 -3.875 10.140625 -3.1875 C 10.347656 -2.5 10.5625 -1.9375 10.78125 -1.5 C 11.125 -0.75 11.789062 -0.375 12.78125 -0.375 C 14 -0.375 14.796875 -1.078125 15.171875 -2.484375 C 15.453125 -3.484375 15.59375 -5.734375 15.59375 -9.234375 Z M 12.6875 0.46875 C 8.789062 0.46875 5.84375 -0.53125 3.84375 -2.53125 C 1.84375 -4.53125 0.84375 -7.394531 0.84375 -11.125 C 0.84375 -14.851562 1.910156 -17.722656 4.046875 -19.734375 C 6.191406 -21.753906 9.195312 -22.765625 13.0625 -22.765625 C 16.9375 -22.765625 19.828125 -21.832031 21.734375 -19.96875 C 23.640625 -18.113281 24.59375 -15.285156 24.59375 -11.484375 C 24.59375 -3.515625 20.625 0.46875 12.6875 0.46875 Z M 12.6875 0.46875 "/></g></g><g style="fill:#000000;fill-opacity:1;"><g transform="translate(127.599773, 50.588723)"><path style="stroke:none" d="M 1.546875 0.46875 L 1.546875 -7.921875 L 2.109375 -7.921875 C 2.921875 -5.203125 4.015625 -3.296875 5.390625 -2.203125 C 6.765625 -1.109375 8.484375 -0.5625 10.546875 -0.5625 C 13.722656 -0.5625 15.3125 -1.578125 15.3125 -3.609375 C 15.3125 -4.484375 14.921875 -5.140625 14.140625 -5.578125 C 12.921875 -6.265625 11.363281 -6.796875 9.46875 -7.171875 C 7.34375 -7.734375 5.5625 -8.484375 4.125 -9.421875 C 2.40625 -10.546875 1.546875 -12.320312 1.546875 -14.75 C 1.546875 -17.1875 2.296875 -19.128906 3.796875 -20.578125 C 5.296875 -22.035156 7.296875 -22.765625 9.796875 -22.765625 C 11.316406 -22.765625 12.890625 -22.40625 14.515625 -21.6875 C 15.109375 -21.4375 15.5625 -21.3125 15.875 -21.3125 C 16.1875 -21.3125 16.453125 -21.421875 16.671875 -21.640625 C 16.890625 -21.859375 17.15625 -22.265625 17.46875 -22.859375 L 17.984375 -22.859375 L 17.984375 -15.6875 L 17.421875 -15.6875 C 15.828125 -19.75 13.363281 -21.78125 10.03125 -21.78125 C 8.5625 -21.78125 7.46875 -21.519531 6.75 -21 C 6.03125 -20.488281 5.671875 -19.84375 5.671875 -19.0625 C 5.671875 -18.59375 5.78125 -18.222656 6 -17.953125 C 6.21875 -17.691406 6.390625 -17.5 6.515625 -17.375 C 6.640625 -17.25 6.84375 -17.113281 7.125 -16.96875 C 7.40625 -16.832031 7.640625 -16.722656 7.828125 -16.640625 C 8.015625 -16.566406 8.300781 -16.46875 8.6875 -16.34375 C 9.082031 -16.21875 9.375 -16.140625 9.5625 -16.109375 C 11.675781 -15.578125 13.203125 -15.113281 14.140625 -14.71875 C 15.078125 -14.332031 15.96875 -13.859375 16.8125 -13.296875 C 18.53125 -12.117188 19.390625 -10.207031 19.390625 -7.5625 C 19.390625 -4.925781 18.609375 -2.925781 17.046875 -1.5625 C 15.484375 -0.207031 13.347656 0.46875 10.640625 0.46875 C 8.703125 0.46875 6.828125 0.015625 5.015625 -0.890625 C 4.640625 -1.140625 4.34375 -1.265625 4.125 -1.265625 C 3.4375 -1.265625 2.765625 -0.6875 2.109375 0.46875 Z M 1.546875 0.46875 "/></g></g><g style="fill:#000000;fill-opacity:1;"><g transform="translate(147.925538, 50.588723)"><path style="stroke:none" d="M 2.8125 -6.703125 L 2.8125 -21.453125 L 0.234375 -21.453125 L 0.234375 -22.296875 L 2.8125 -22.296875 L 2.8125 -28.34375 L 11.53125 -30.5 L 11.53125 -22.296875 L 17.609375 -22.296875 L 17.609375 -21.453125 L 11.53125 -21.453125 L 11.53125 -5.671875 C 11.53125 -4.203125 11.675781 -3.125 11.96875 -2.4375 C 12.257812 -1.75 12.875 -1.40625 13.8125 -1.40625 C 14.75 -1.40625 15.566406 -1.875 16.265625 -2.8125 C 16.972656 -3.75 17.4375 -5.03125 17.65625 -6.65625 L 18.453125 -6.5625 C 18.203125 -4.40625 17.515625 -2.691406 16.390625 -1.421875 C 15.265625 -0.160156 13.40625 0.46875 10.8125 0.46875 C 8.226562 0.46875 6.25 -0.046875 4.875 -1.078125 C 3.5 -2.109375 2.8125 -3.984375 2.8125 -6.703125 Z M 2.8125 -6.703125 "/></g></g><g style="fill:#000000;fill-opacity:1;"><g transform="translate(166.377978, 50.588723)"><path style="stroke:none" d="M 1.171875 -32.796875 L 15.453125 -32.796875 L 15.453125 -31.90625 L 12.875 -31.90625 L 12.875 -0.890625 L 15.453125 -0.890625 L 15.453125 0 L 1.171875 0 L 1.171875 -0.890625 L 3.75 -0.890625 L 3.75 -31.90625 L 1.171875 -31.90625 Z M 1.171875 -32.796875 "/></g></g><g style="fill:#000000;fill-opacity:1;"><g transform="translate(183.003919, 50.588723)"><path style="stroke:none" d="M 2.8125 -6.703125 L 2.8125 -21.453125 L 0.234375 -21.453125 L 0.234375 -22.296875 L 2.8125 -22.296875 L 2.8125 -28.34375 L 11.53125 -30.5 L 11.53125 -22.296875 L 17.609375 -22.296875 L 17.609375 -21.453125 L 11.53125 -21.453125 L 11.53125 -5.671875 C 11.53125 -4.203125 11.675781 -3.125 11.96875 -2.4375 C 12.257812 -1.75 12.875 -1.40625 13.8125 -1.40625 C 14.75 -1.40625 15.566406 -1.875 16.265625 -2.8125 C 16.972656 -3.75 17.4375 -5.03125 17.65625 -6.65625 L 18.453125 -6.5625 C 18.203125 -4.40625 17.515625 -2.691406 16.390625 -1.421875 C 15.265625 -0.160156 13.40625 0.46875 10.8125 0.46875 C 8.226562 0.46875 6.25 -0.046875 4.875 -1.078125 C 3.5 -2.109375 2.8125 -3.984375 2.8125 -6.703125 Z M 2.8125 -6.703125 "/></g></g></g></svg>