<svg xmlns="http://www.w3.org/2000/svg" xmlns:xlink="http://www.w3.org/1999/xlink" width="366" zoomAndPan="magnify" viewBox="0 0 274.5 125.249995" height="167" preserveAspectRatio="xMidYMid meet" version="1.2"><defs/><g id="59643a3315"><g style="fill:currentColor;"><g transform="translate(38.780518, 96.961895)"><path style="stroke:none" d="M 9.984375 -2.515625 L 4.5 -2.515625 L 3.484375 0 L -0.265625 0 L 5.46875 -12.953125 L 9.078125 -12.953125 L 14.8125 0 L 11 0 Z M 8.90625 -5.21875 L 7.234375 -9.375 L 5.578125 -5.21875 Z M 8.90625 -5.21875 "/></g></g><g style="fill:currentColor;"><g transform="translate(53.327739, 96.961895)"><path style="stroke:none" d="M 9.984375 -2.515625 L 4.5 -2.515625 L 3.484375 0 L -0.265625 0 L 5.46875 -12.953125 L 9.078125 -12.953125 L 14.8125 0 L 11 0 Z M 8.90625 -5.21875 L 7.234375 -9.375 L 5.578125 -5.21875 Z M 8.90625 -5.21875 "/></g></g><g style="fill:currentColor;"><g transform="translate(67.87496, 96.961895)"><path style="stroke:none" d="M 1.296875 -12.953125 L 7.421875 -12.953125 C 8.835938 -12.953125 10.09375 -12.6875 11.1875 -12.15625 C 12.289062 -11.632812 13.144531 -10.882812 13.75 -9.90625 C 14.363281 -8.925781 14.671875 -7.785156 14.671875 -6.484375 C 14.671875 -5.171875 14.363281 -4.023438 13.75 -3.046875 C 13.144531 -2.078125 12.289062 -1.328125 11.1875 -0.796875 C 10.09375 -0.265625 8.835938 0 7.421875 0 L 1.296875 0 Z M 7.28125 -2.921875 C 8.382812 -2.921875 9.273438 -3.234375 9.953125 -3.859375 C 10.628906 -4.492188 10.96875 -5.367188 10.96875 -6.484375 C 10.96875 -7.585938 10.628906 -8.453125 9.953125 -9.078125 C 9.273438 -9.710938 8.382812 -10.03125 7.28125 -10.03125 L 4.96875 -10.03125 L 4.96875 -2.921875 Z M 7.28125 -2.921875 "/></g></g><g style="fill:currentColor;"><g transform="translate(83.162501, 96.961895)"><path style="stroke:none" d="M 8.234375 -4.640625 L 8.234375 0 L 4.578125 0 L 4.578125 -4.703125 L -0.375 -12.953125 L 3.5 -12.953125 L 6.578125 -7.8125 L 9.640625 -12.953125 L 13.203125 -12.953125 Z M 8.234375 -4.640625 "/></g></g><g style="fill:currentColor;"><g transform="translate(95.988489, 96.961895)"><path style="stroke:none" d="M 9.984375 -2.515625 L 4.5 -2.515625 L 3.484375 0 L -0.265625 0 L 5.46875 -12.953125 L 9.078125 -12.953125 L 14.8125 0 L 11 0 Z M 8.90625 -5.21875 L 7.234375 -9.375 L 5.578125 -5.21875 Z M 8.90625 -5.21875 "/></g></g><g style="fill:currentColor;"><g transform="translate(110.53571, 96.961895)"><path style="stroke:none" d=""/></g></g><g style="fill:currentColor;"><g transform="translate(115.921518, 96.961895)"><path style="stroke:none" d="M 4.0625 -10.046875 L 0.078125 -10.046875 L 0.078125 -12.953125 L 11.6875 -12.953125 L 11.6875 -10.046875 L 7.71875 -10.046875 L 7.71875 0 L 4.0625 0 Z M 4.0625 -10.046875 "/></g></g><g style="fill:currentColor;"><g transform="translate(127.674046, 96.961895)"><path style="stroke:none" d="M 11.703125 -2.828125 L 11.703125 0 L 1.296875 0 L 1.296875 -12.953125 L 11.46875 -12.953125 L 11.46875 -10.125 L 4.921875 -10.125 L 4.921875 -7.9375 L 10.6875 -7.9375 L 10.6875 -5.203125 L 4.921875 -5.203125 L 4.921875 -2.828125 Z M 11.703125 -2.828125 "/></g></g><g style="fill:currentColor;"><g transform="translate(140.111371, 96.961895)"><path style="stroke:none" d="M 7.765625 0.265625 C 6.398438 0.265625 5.175781 -0.0195312 4.09375 -0.59375 C 3.019531 -1.175781 2.171875 -1.976562 1.546875 -3 C 0.929688 -4.019531 0.625 -5.179688 0.625 -6.484375 C 0.625 -7.773438 0.929688 -8.929688 1.546875 -9.953125 C 2.171875 -10.984375 3.019531 -11.785156 4.09375 -12.359375 C 5.175781 -12.929688 6.398438 -13.21875 7.765625 -13.21875 C 8.941406 -13.21875 10.003906 -13.007812 10.953125 -12.59375 C 11.910156 -12.175781 12.703125 -11.570312 13.328125 -10.78125 L 11 -8.671875 C 10.15625 -9.679688 9.132812 -10.1875 7.9375 -10.1875 C 7.238281 -10.1875 6.613281 -10.03125 6.0625 -9.71875 C 5.507812 -9.40625 5.082031 -8.96875 4.78125 -8.40625 C 4.476562 -7.851562 4.328125 -7.210938 4.328125 -6.484375 C 4.328125 -5.753906 4.476562 -5.109375 4.78125 -4.546875 C 5.082031 -3.984375 5.507812 -3.546875 6.0625 -3.234375 C 6.613281 -2.929688 7.238281 -2.78125 7.9375 -2.78125 C 9.132812 -2.78125 10.15625 -3.285156 11 -4.296875 L 13.328125 -2.1875 C 12.703125 -1.394531 11.910156 -0.785156 10.953125 -0.359375 C 10.003906 0.0546875 8.941406 0.265625 7.765625 0.265625 Z M 7.765625 0.265625 "/></g></g><g style="fill:currentColor;"><g transform="translate(153.770219, 96.961895)"><path style="stroke:none" d="M 13.625 -12.953125 L 13.625 0 L 9.96875 0 L 9.96875 -5.0625 L 4.96875 -5.0625 L 4.96875 0 L 1.296875 0 L 1.296875 -12.953125 L 4.96875 -12.953125 L 4.96875 -8.09375 L 9.96875 -8.09375 L 9.96875 -12.953125 Z M 13.625 -12.953125 "/></g></g><g style="fill:currentColor;"><g transform="translate(168.687604, 96.961895)"><path style="stroke:none" d="M 13.625 -12.953125 L 13.625 0 L 10.609375 0 L 4.890625 -6.90625 L 4.890625 0 L 1.296875 0 L 1.296875 -12.953125 L 4.3125 -12.953125 L 10.03125 -6.046875 L 10.03125 -12.953125 Z M 13.625 -12.953125 "/></g></g><g style="fill:currentColor;"><g transform="translate(183.604997, 96.961895)"><path style="stroke:none" d="M 7.828125 0.265625 C 6.460938 0.265625 5.234375 -0.0234375 4.140625 -0.609375 C 3.046875 -1.191406 2.1875 -1.992188 1.5625 -3.015625 C 0.9375 -4.046875 0.625 -5.203125 0.625 -6.484375 C 0.625 -7.765625 0.9375 -8.914062 1.5625 -9.9375 C 2.1875 -10.96875 3.046875 -11.769531 4.140625 -12.34375 C 5.234375 -12.925781 6.460938 -13.21875 7.828125 -13.21875 C 9.203125 -13.21875 10.4375 -12.925781 11.53125 -12.34375 C 12.625 -11.769531 13.476562 -10.96875 14.09375 -9.9375 C 14.71875 -8.914062 15.03125 -7.765625 15.03125 -6.484375 C 15.03125 -5.203125 14.71875 -4.046875 14.09375 -3.015625 C 13.476562 -1.992188 12.625 -1.191406 11.53125 -0.609375 C 10.4375 -0.0234375 9.203125 0.265625 7.828125 0.265625 Z M 7.828125 -2.78125 C 8.484375 -2.78125 9.078125 -2.929688 9.609375 -3.234375 C 10.140625 -3.546875 10.554688 -3.984375 10.859375 -4.546875 C 11.171875 -5.109375 11.328125 -5.753906 11.328125 -6.484375 C 11.328125 -7.210938 11.171875 -7.851562 10.859375 -8.40625 C 10.554688 -8.96875 10.140625 -9.40625 9.609375 -9.71875 C 9.078125 -10.03125 8.484375 -10.1875 7.828125 -10.1875 C 7.171875 -10.1875 6.578125 -10.03125 6.046875 -9.71875 C 5.523438 -9.40625 5.109375 -8.96875 4.796875 -8.40625 C 4.484375 -7.851562 4.328125 -7.210938 4.328125 -6.484375 C 4.328125 -5.753906 4.484375 -5.109375 4.796875 -4.546875 C 5.109375 -3.984375 5.523438 -3.546875 6.046875 -3.234375 C 6.578125 -2.929688 7.171875 -2.78125 7.828125 -2.78125 Z M 7.828125 -2.78125 "/></g></g><g style="fill:currentColor;"><g transform="translate(199.262685, 96.961895)"><path style="stroke:none" d="M 1.296875 -12.953125 L 4.96875 -12.953125 L 4.96875 -2.90625 L 11.140625 -2.90625 L 11.140625 0 L 1.296875 0 Z M 1.296875 -12.953125 "/></g></g><g style="fill:currentColor;"><g transform="translate(210.552519, 96.961895)"><path style="stroke:none" d="M 7.828125 0.265625 C 6.460938 0.265625 5.234375 -0.0234375 4.140625 -0.609375 C 3.046875 -1.191406 2.1875 -1.992188 1.5625 -3.015625 C 0.9375 -4.046875 0.625 -5.203125 0.625 -6.484375 C 0.625 -7.765625 0.9375 -8.914062 1.5625 -9.9375 C 2.1875 -10.96875 3.046875 -11.769531 4.140625 -12.34375 C 5.234375 -12.925781 6.460938 -13.21875 7.828125 -13.21875 C 9.203125 -13.21875 10.4375 -12.925781 11.53125 -12.34375 C 12.625 -11.769531 13.476562 -10.96875 14.09375 -9.9375 C 14.71875 -8.914062 15.03125 -7.765625 15.03125 -6.484375 C 15.03125 -5.203125 14.71875 -4.046875 14.09375 -3.015625 C 13.476562 -1.992188 12.625 -1.191406 11.53125 -0.609375 C 10.4375 -0.0234375 9.203125 0.265625 7.828125 0.265625 Z M 7.828125 -2.78125 C 8.484375 -2.78125 9.078125 -2.929688 9.609375 -3.234375 C 10.140625 -3.546875 10.554688 -3.984375 10.859375 -4.546875 C 11.171875 -5.109375 11.328125 -5.753906 11.328125 -6.484375 C 11.328125 -7.210938 11.171875 -7.851562 10.859375 -8.40625 C 10.554688 -8.96875 10.140625 -9.40625 9.609375 -9.71875 C 9.078125 -10.03125 8.484375 -10.1875 7.828125 -10.1875 C 7.171875 -10.1875 6.578125 -10.03125 6.046875 -9.71875 C 5.523438 -9.40625 5.109375 -8.96875 4.796875 -8.40625 C 4.484375 -7.851562 4.328125 -7.210938 4.328125 -6.484375 C 4.328125 -5.753906 4.484375 -5.109375 4.796875 -4.546875 C 5.109375 -3.984375 5.523438 -3.546875 6.046875 -3.234375 C 6.578125 -2.929688 7.171875 -2.78125 7.828125 -2.78125 Z M 7.828125 -2.78125 "/></g></g><g style="fill:currentColor;"><g transform="translate(226.210207, 96.961895)"><path style="stroke:none" d="M 9.984375 -6.765625 L 13.21875 -6.765625 L 13.21875 -1.390625 C 12.476562 -0.859375 11.625 -0.445312 10.65625 -0.15625 C 9.695312 0.125 8.738281 0.265625 7.78125 0.265625 C 6.414062 0.265625 5.191406 -0.0195312 4.109375 -0.59375 C 3.023438 -1.175781 2.171875 -1.976562 1.546875 -3 C 0.929688 -4.019531 0.625 -5.179688 0.625 -6.484375 C 0.625 -7.773438 0.929688 -8.929688 1.546875 -9.953125 C 2.171875 -10.984375 3.03125 -11.785156 4.125 -12.359375 C 5.226562 -12.929688 6.46875 -13.21875 7.84375 -13.21875 C 9.0625 -13.21875 10.148438 -13.015625 11.109375 -12.609375 C 12.066406 -12.203125 12.867188 -11.613281 13.515625 -10.84375 L 11.1875 -8.734375 C 10.3125 -9.703125 9.257812 -10.1875 8.03125 -10.1875 C 6.925781 -10.1875 6.03125 -9.847656 5.34375 -9.171875 C 4.664062 -8.503906 4.328125 -7.609375 4.328125 -6.484375 C 4.328125 -5.765625 4.484375 -5.125 4.796875 -4.5625 C 5.109375 -4 5.539062 -3.5625 6.09375 -3.25 C 6.644531 -2.9375 7.28125 -2.78125 8 -2.78125 C 8.695312 -2.78125 9.359375 -2.921875 9.984375 -3.203125 Z M 9.984375 -6.765625 "/></g></g><g style="fill:currentColor;"><g transform="translate(240.46132, 96.961895)"><path style="stroke:none" d="M 8.234375 -4.640625 L 8.234375 0 L 4.578125 0 L 4.578125 -4.703125 L -0.375 -12.953125 L 3.5 -12.953125 L 6.578125 -7.8125 L 9.640625 -12.953125 L 13.203125 -12.953125 Z M 8.234375 -4.640625 "/></g></g><g style="fill:currentColor;"><g transform="translate(86.30992, 122.652539)"><path style="stroke:none" d="M 5.84375 0.265625 C 4.800781 0.265625 3.785156 0.132812 2.796875 -0.125 C 1.804688 -0.382812 1.003906 -0.734375 0.390625 -1.171875 L 1.59375 -3.875 C 2.175781 -3.488281 2.847656 -3.175781 3.609375 -2.9375 C 4.378906 -2.707031 5.132812 -2.59375 5.875 -2.59375 C 7.28125 -2.59375 7.984375 -2.941406 7.984375 -3.640625 C 7.984375 -4.015625 7.78125 -4.289062 7.375 -4.46875 C 6.976562 -4.644531 6.332031 -4.832031 5.4375 -5.03125 C 4.46875 -5.238281 3.65625 -5.460938 3 -5.703125 C 2.34375 -5.953125 1.78125 -6.34375 1.3125 -6.875 C 0.84375 -7.40625 0.609375 -8.117188 0.609375 -9.015625 C 0.609375 -9.804688 0.820312 -10.519531 1.25 -11.15625 C 1.6875 -11.789062 2.332031 -12.289062 3.1875 -12.65625 C 4.050781 -13.03125 5.101562 -13.21875 6.34375 -13.21875 C 7.195312 -13.21875 8.035156 -13.117188 8.859375 -12.921875 C 9.691406 -12.734375 10.421875 -12.457031 11.046875 -12.09375 L 9.921875 -9.375 C 8.691406 -10.039062 7.492188 -10.375 6.328125 -10.375 C 5.597656 -10.375 5.066406 -10.265625 4.734375 -10.046875 C 4.398438 -9.828125 4.234375 -9.546875 4.234375 -9.203125 C 4.234375 -8.859375 4.429688 -8.597656 4.828125 -8.421875 C 5.222656 -8.253906 5.859375 -8.078125 6.734375 -7.890625 C 7.722656 -7.679688 8.539062 -7.453125 9.1875 -7.203125 C 9.84375 -6.960938 10.40625 -6.582031 10.875 -6.0625 C 11.351562 -5.539062 11.59375 -4.828125 11.59375 -3.921875 C 11.59375 -3.148438 11.375 -2.445312 10.9375 -1.8125 C 10.507812 -1.1875 9.863281 -0.679688 9 -0.296875 C 8.132812 0.078125 7.082031 0.265625 5.84375 0.265625 Z M 5.84375 0.265625 "/></g></g><g style="fill:currentColor;"><g transform="translate(98.284542, 122.652539)"><path style="stroke:none" d="M 7.828125 0.265625 C 6.460938 0.265625 5.234375 -0.0234375 4.140625 -0.609375 C 3.046875 -1.191406 2.1875 -1.992188 1.5625 -3.015625 C 0.9375 -4.046875 0.625 -5.203125 0.625 -6.484375 C 0.625 -7.765625 0.9375 -8.914062 1.5625 -9.9375 C 2.1875 -10.96875 3.046875 -11.769531 4.140625 -12.34375 C 5.234375 -12.925781 6.460938 -13.21875 7.828125 -13.21875 C 9.203125 -13.21875 10.4375 -12.925781 11.53125 -12.34375 C 12.625 -11.769531 13.476562 -10.96875 14.09375 -9.9375 C 14.71875 -8.914062 15.03125 -7.765625 15.03125 -6.484375 C 15.03125 -5.203125 14.71875 -4.046875 14.09375 -3.015625 C 13.476562 -1.992188 12.625 -1.191406 11.53125 -0.609375 C 10.4375 -0.0234375 9.203125 0.265625 7.828125 0.265625 Z M 7.828125 -2.78125 C 8.484375 -2.78125 9.078125 -2.929688 9.609375 -3.234375 C 10.140625 -3.546875 10.554688 -3.984375 10.859375 -4.546875 C 11.171875 -5.109375 11.328125 -5.753906 11.328125 -6.484375 C 11.328125 -7.210938 11.171875 -7.851562 10.859375 -8.40625 C 10.554688 -8.96875 10.140625 -9.40625 9.609375 -9.71875 C 9.078125 -10.03125 8.484375 -10.1875 7.828125 -10.1875 C 7.171875 -10.1875 6.578125 -10.03125 6.046875 -9.71875 C 5.523438 -9.40625 5.109375 -8.96875 4.796875 -8.40625 C 4.484375 -7.851562 4.328125 -7.210938 4.328125 -6.484375 C 4.328125 -5.753906 4.484375 -5.109375 4.796875 -4.546875 C 5.109375 -3.984375 5.523438 -3.546875 6.046875 -3.234375 C 6.578125 -2.929688 7.171875 -2.78125 7.828125 -2.78125 Z M 7.828125 -2.78125 "/></g></g><g style="fill:currentColor;"><g transform="translate(113.942238, 122.652539)"><path style="stroke:none" d="M 1.296875 -12.953125 L 4.96875 -12.953125 L 4.96875 -2.90625 L 11.140625 -2.90625 L 11.140625 0 L 1.296875 0 Z M 1.296875 -12.953125 "/></g></g><g style="fill:currentColor;"><g transform="translate(125.232072, 122.652539)"><path style="stroke:none" d="M 7.28125 0.265625 C 5.351562 0.265625 3.851562 -0.257812 2.78125 -1.3125 C 1.71875 -2.363281 1.1875 -3.851562 1.1875 -5.78125 L 1.1875 -12.953125 L 4.84375 -12.953125 L 4.84375 -5.890625 C 4.84375 -3.816406 5.664062 -2.78125 7.3125 -2.78125 C 8.9375 -2.78125 9.75 -3.816406 9.75 -5.890625 L 9.75 -12.953125 L 13.375 -12.953125 L 13.375 -5.78125 C 13.375 -3.851562 12.835938 -2.363281 11.765625 -1.3125 C 10.703125 -0.257812 9.207031 0.265625 7.28125 0.265625 Z M 7.28125 0.265625 "/></g></g><g style="fill:currentColor;"><g transform="translate(139.779293, 122.652539)"><path style="stroke:none" d="M 4.0625 -10.046875 L 0.078125 -10.046875 L 0.078125 -12.953125 L 11.6875 -12.953125 L 11.6875 -10.046875 L 7.71875 -10.046875 L 7.71875 0 L 4.0625 0 Z M 4.0625 -10.046875 "/></g></g><g style="fill:currentColor;"><g transform="translate(151.531821, 122.652539)"><path style="stroke:none" d="M 1.296875 -12.953125 L 4.96875 -12.953125 L 4.96875 0 L 1.296875 0 Z M 1.296875 -12.953125 "/></g></g><g style="fill:currentColor;"><g transform="translate(157.806003, 122.652539)"><path style="stroke:none" d="M 7.828125 0.265625 C 6.460938 0.265625 5.234375 -0.0234375 4.140625 -0.609375 C 3.046875 -1.191406 2.1875 -1.992188 1.5625 -3.015625 C 0.9375 -4.046875 0.625 -5.203125 0.625 -6.484375 C 0.625 -7.765625 0.9375 -8.914062 1.5625 -9.9375 C 2.1875 -10.96875 3.046875 -11.769531 4.140625 -12.34375 C 5.234375 -12.925781 6.460938 -13.21875 7.828125 -13.21875 C 9.203125 -13.21875 10.4375 -12.925781 11.53125 -12.34375 C 12.625 -11.769531 13.476562 -10.96875 14.09375 -9.9375 C 14.71875 -8.914062 15.03125 -7.765625 15.03125 -6.484375 C 15.03125 -5.203125 14.71875 -4.046875 14.09375 -3.015625 C 13.476562 -1.992188 12.625 -1.191406 11.53125 -0.609375 C 10.4375 -0.0234375 9.203125 0.265625 7.828125 0.265625 Z M 7.828125 -2.78125 C 8.484375 -2.78125 9.078125 -2.929688 9.609375 -3.234375 C 10.140625 -3.546875 10.554688 -3.984375 10.859375 -4.546875 C 11.171875 -5.109375 11.328125 -5.753906 11.328125 -6.484375 C 11.328125 -7.210938 11.171875 -7.851562 10.859375 -8.40625 C 10.554688 -8.96875 10.140625 -9.40625 9.609375 -9.71875 C 9.078125 -10.03125 8.484375 -10.1875 7.828125 -10.1875 C 7.171875 -10.1875 6.578125 -10.03125 6.046875 -9.71875 C 5.523438 -9.40625 5.109375 -8.96875 4.796875 -8.40625 C 4.484375 -7.851562 4.328125 -7.210938 4.328125 -6.484375 C 4.328125 -5.753906 4.484375 -5.109375 4.796875 -4.546875 C 5.109375 -3.984375 5.523438 -3.546875 6.046875 -3.234375 C 6.578125 -2.929688 7.171875 -2.78125 7.828125 -2.78125 Z M 7.828125 -2.78125 "/></g></g><g style="fill:currentColor;"><g transform="translate(173.463699, 122.652539)"><path style="stroke:none" d="M 13.625 -12.953125 L 13.625 0 L 10.609375 0 L 4.890625 -6.90625 L 4.890625 0 L 1.296875 0 L 1.296875 -12.953125 L 4.3125 -12.953125 L 10.03125 -6.046875 L 10.03125 -12.953125 Z M 13.625 -12.953125 "/></g></g><g style="fill:currentColor;"><g transform="translate(188.381084, 122.652539)"><path style="stroke:none" d="M 5.84375 0.265625 C 4.800781 0.265625 3.785156 0.132812 2.796875 -0.125 C 1.804688 -0.382812 1.003906 -0.734375 0.390625 -1.171875 L 1.59375 -3.875 C 2.175781 -3.488281 2.847656 -3.175781 3.609375 -2.9375 C 4.378906 -2.707031 5.132812 -2.59375 5.875 -2.59375 C 7.28125 -2.59375 7.984375 -2.941406 7.984375 -3.640625 C 7.984375 -4.015625 7.78125 -4.289062 7.375 -4.46875 C 6.976562 -4.644531 6.332031 -4.832031 5.4375 -5.03125 C 4.46875 -5.238281 3.65625 -5.460938 3 -5.703125 C 2.34375 -5.953125 1.78125 -6.34375 1.3125 -6.875 C 0.84375 -7.40625 0.609375 -8.117188 0.609375 -9.015625 C 0.609375 -9.804688 0.820312 -10.519531 1.25 -11.15625 C 1.6875 -11.789062 2.332031 -12.289062 3.1875 -12.65625 C 4.050781 -13.03125 5.101562 -13.21875 6.34375 -13.21875 C 7.195312 -13.21875 8.035156 -13.117188 8.859375 -12.921875 C 9.691406 -12.734375 10.421875 -12.457031 11.046875 -12.09375 L 9.921875 -9.375 C 8.691406 -10.039062 7.492188 -10.375 6.328125 -10.375 C 5.597656 -10.375 5.066406 -10.265625 4.734375 -10.046875 C 4.398438 -9.828125 4.234375 -9.546875 4.234375 -9.203125 C 4.234375 -8.859375 4.429688 -8.597656 4.828125 -8.421875 C 5.222656 -8.253906 5.859375 -8.078125 6.734375 -7.890625 C 7.722656 -7.679688 8.539062 -7.453125 9.1875 -7.203125 C 9.84375 -6.960938 10.40625 -6.582031 10.875 -6.0625 C 11.351562 -5.539062 11.59375 -4.828125 11.59375 -3.921875 C 11.59375 -3.148438 11.375 -2.445312 10.9375 -1.8125 C 10.507812 -1.1875 9.863281 -0.679688 9 -0.296875 C 8.132812 0.078125 7.082031 0.265625 5.84375 0.265625 Z M 5.84375 0.265625 "/></g></g><g style="fill:currentColor;"><g transform="translate(200.363397, 122.652539)"><path style="stroke:none" d=""/></g></g><g style="fill:currentColor;"><g transform="translate(126.28381, 75.207728)"><path style="stroke:none" d="M 8.90625 -5.34375 C 9.5 -5.144531 9.957031 -4.828125 10.28125 -4.390625 C 10.613281 -3.953125 10.78125 -3.425781 10.78125 -2.8125 C 10.78125 -1.914062 10.421875 -1.222656 9.703125 -0.734375 C 8.984375 -0.242188 7.9375 0 6.5625 0 L 1.03125 0 L 1.03125 -10.265625 L 6.265625 -10.265625 C 7.578125 -10.265625 8.570312 -10.019531 9.25 -9.53125 C 9.9375 -9.050781 10.28125 -8.398438 10.28125 -7.578125 C 10.28125 -7.085938 10.160156 -6.648438 9.921875 -6.265625 C 9.691406 -5.878906 9.351562 -5.570312 8.90625 -5.34375 Z M 3.90625 -8.15625 L 3.90625 -6.1875 L 5.890625 -6.1875 C 6.867188 -6.1875 7.359375 -6.519531 7.359375 -7.1875 C 7.359375 -7.832031 6.867188 -8.15625 5.890625 -8.15625 Z M 6.328125 -2.09375 C 7.347656 -2.09375 7.859375 -2.441406 7.859375 -3.140625 C 7.859375 -3.828125 7.347656 -4.171875 6.328125 -4.171875 L 3.90625 -4.171875 L 3.90625 -2.09375 Z M 6.328125 -2.09375 "/></g></g><g style="fill:currentColor;"><g transform="translate(137.55636, 75.207728)"><path style="stroke:none" d="M 6.515625 -3.671875 L 6.515625 0 L 3.625 0 L 3.625 -3.71875 L -0.296875 -10.265625 L 2.765625 -10.265625 L 5.203125 -6.1875 L 7.640625 -10.265625 L 10.453125 -10.265625 Z M 6.515625 -3.671875 "/></g></g><g style="fill:currentColor;"><g transform="translate(32.38448, 55.394378)"><path style="stroke:none" d="M 1.140625 -53.171875 L 23.46875 -53.171875 C 31.113281 -53.171875 36.804688 -52.066406 40.546875 -49.859375 C 44.296875 -47.660156 46.171875 -43.722656 46.171875 -38.046875 C 46.171875 -31.773438 43.894531 -27.445312 39.34375 -25.0625 C 35.09375 -22.882812 29.144531 -21.796875 21.5 -21.796875 L 20.890625 -21.796875 L 20.890625 -1.4375 L 30.375 -1.4375 L 30.375 0 L 1.140625 0 L 1.140625 -1.4375 L 6.078125 -1.4375 L 6.078125 -51.71875 L 1.140625 -51.71875 Z M 20.890625 -51.71875 L 20.890625 -23.234375 L 22.484375 -23.234375 C 25.523438 -23.234375 27.625 -24.269531 28.78125 -26.34375 C 29.945312 -28.425781 30.53125 -31.796875 30.53125 -36.453125 L 30.53125 -40.109375 C 30.53125 -44.410156 29.984375 -47.421875 28.890625 -49.140625 C 27.804688 -50.859375 25.820312 -51.71875 22.9375 -51.71875 Z M 20.890625 -51.71875 "/></g></g><g style="fill:currentColor;"><g transform="translate(80.526247, 55.394378)"><path style="stroke:none" d="M 25.296875 -14.96875 L 25.296875 -21.421875 C 25.296875 -26.328125 25.03125 -29.90625 24.5 -32.15625 C 23.96875 -34.414062 22.738281 -35.546875 20.8125 -35.546875 C 19.695312 -35.546875 18.796875 -35.226562 18.109375 -34.59375 C 17.429688 -33.957031 16.941406 -32.90625 16.640625 -31.4375 C 16.179688 -29.164062 15.953125 -25.695312 15.953125 -21.03125 L 15.953125 -15.109375 C 15.953125 -9.585938 16.113281 -6.269531 16.4375 -5.15625 C 16.769531 -4.050781 17.113281 -3.144531 17.46875 -2.4375 C 18.019531 -1.21875 19.109375 -0.609375 20.734375 -0.609375 C 22.710938 -0.609375 24.003906 -1.75 24.609375 -4.03125 C 25.066406 -5.644531 25.296875 -9.289062 25.296875 -14.96875 Z M 20.578125 0.765625 C 14.253906 0.765625 9.46875 -0.851562 6.21875 -4.09375 C 2.976562 -7.34375 1.359375 -11.988281 1.359375 -18.03125 C 1.359375 -24.082031 3.09375 -28.738281 6.5625 -32 C 10.03125 -35.269531 14.90625 -36.90625 21.1875 -36.90625 C 27.46875 -36.90625 32.148438 -35.398438 35.234375 -32.390625 C 38.328125 -29.378906 39.875 -24.785156 39.875 -18.609375 C 39.875 -5.691406 33.441406 0.765625 20.578125 0.765625 Z M 20.578125 0.765625 "/></g></g><g style="fill:currentColor;"><g transform="translate(121.758081, 55.394378)"><path style="stroke:none" d="M 2.5 0.765625 L 2.5 -12.84375 L 3.421875 -12.84375 C 4.734375 -8.4375 6.503906 -5.34375 8.734375 -3.5625 C 10.960938 -1.789062 13.75 -0.90625 17.09375 -0.90625 C 22.257812 -0.90625 24.84375 -2.550781 24.84375 -5.84375 C 24.84375 -7.257812 24.207031 -8.320312 22.9375 -9.03125 C 20.957031 -10.144531 18.425781 -11.007812 15.34375 -11.625 C 11.894531 -12.53125 9.007812 -13.742188 6.6875 -15.265625 C 3.894531 -17.085938 2.5 -19.972656 2.5 -23.921875 C 2.5 -27.867188 3.710938 -31.019531 6.140625 -33.375 C 8.578125 -35.726562 11.820312 -36.90625 15.875 -36.90625 C 18.351562 -36.90625 20.910156 -36.328125 23.546875 -35.171875 C 24.503906 -34.765625 25.234375 -34.5625 25.734375 -34.5625 C 26.242188 -34.5625 26.675781 -34.738281 27.03125 -35.09375 C 27.394531 -35.445312 27.828125 -36.101562 28.328125 -37.0625 L 29.171875 -37.0625 L 29.171875 -25.4375 L 28.25 -25.4375 C 25.664062 -32.019531 21.664062 -35.3125 16.25 -35.3125 C 13.875 -35.3125 12.101562 -34.894531 10.9375 -34.0625 C 9.769531 -33.226562 9.1875 -32.175781 9.1875 -30.90625 C 9.1875 -30.15625 9.363281 -29.5625 9.71875 -29.125 C 10.070312 -28.695312 10.347656 -28.378906 10.546875 -28.171875 C 10.753906 -27.972656 11.085938 -27.757812 11.546875 -27.53125 C 12.003906 -27.300781 12.382812 -27.125 12.6875 -27 C 12.988281 -26.875 13.453125 -26.707031 14.078125 -26.5 C 14.710938 -26.300781 15.1875 -26.175781 15.5 -26.125 C 18.9375 -25.269531 21.414062 -24.523438 22.9375 -23.890625 C 24.457031 -23.253906 25.898438 -22.484375 27.265625 -21.578125 C 30.046875 -19.648438 31.4375 -16.546875 31.4375 -12.265625 C 31.4375 -7.984375 30.171875 -4.738281 27.640625 -2.53125 C 25.109375 -0.332031 21.640625 0.765625 17.234375 0.765625 C 14.097656 0.765625 11.0625 0.03125 8.125 -1.4375 C 7.519531 -1.84375 7.039062 -2.046875 6.6875 -2.046875 C 5.570312 -2.046875 4.484375 -1.109375 3.421875 0.765625 Z M 2.5 0.765625 "/></g></g><g style="fill:currentColor;"><g transform="translate(154.713144, 55.394378)"><path style="stroke:none" d="M 4.5625 -10.859375 L 4.5625 -34.78125 L 0.375 -34.78125 L 0.375 -36.15625 L 4.5625 -36.15625 L 4.5625 -45.953125 L 18.6875 -49.453125 L 18.6875 -36.15625 L 28.5625 -36.15625 L 28.5625 -34.78125 L 18.6875 -34.78125 L 18.6875 -9.1875 C 18.6875 -6.8125 18.925781 -5.066406 19.40625 -3.953125 C 19.882812 -2.835938 20.882812 -2.28125 22.40625 -2.28125 C 23.925781 -2.28125 25.253906 -3.035156 26.390625 -4.546875 C 27.535156 -6.066406 28.285156 -8.144531 28.640625 -10.78125 L 29.921875 -10.640625 C 29.515625 -7.140625 28.398438 -4.363281 26.578125 -2.3125 C 24.753906 -0.257812 21.738281 0.765625 17.53125 0.765625 C 13.332031 0.765625 10.117188 -0.0664062 7.890625 -1.734375 C 5.671875 -3.410156 4.5625 -6.453125 4.5625 -10.859375 Z M 4.5625 -10.859375 "/></g></g><g style="fill:currentColor;"><g transform="translate(184.630901, 55.394378)"><path style="stroke:none" d="M 1.90625 -53.171875 L 25.0625 -53.171875 L 25.0625 -51.71875 L 20.890625 -51.71875 L 20.890625 -1.4375 L 25.0625 -1.4375 L 25.0625 0 L 1.90625 0 L 1.90625 -1.4375 L 6.078125 -1.4375 L 6.078125 -51.71875 L 1.90625 -51.71875 Z M 1.90625 -53.171875 "/></g></g><g style="fill:currentColor;"><g transform="translate(211.587275, 55.394378)"><path style="stroke:none" d="M 4.5625 -10.859375 L 4.5625 -34.78125 L 0.375 -34.78125 L 0.375 -36.15625 L 4.5625 -36.15625 L 4.5625 -45.953125 L 18.6875 -49.453125 L 18.6875 -36.15625 L 28.5625 -36.15625 L 28.5625 -34.78125 L 18.6875 -34.78125 L 18.6875 -9.1875 C 18.6875 -6.8125 18.925781 -5.066406 19.40625 -3.953125 C 19.882812 -2.835938 20.882812 -2.28125 22.40625 -2.28125 C 23.925781 -2.28125 25.253906 -3.035156 26.390625 -4.546875 C 27.535156 -6.066406 28.285156 -8.144531 28.640625 -10.78125 L 29.921875 -10.640625 C 29.515625 -7.140625 28.398438 -4.363281 26.578125 -2.3125 C 24.753906 -0.257812 21.738281 0.765625 17.53125 0.765625 C 13.332031 0.765625 10.117188 -0.0664062 7.890625 -1.734375 C 5.671875 -3.410156 4.5625 -6.453125 4.5625 -10.859375 Z M 4.5625 -10.859375 "/></g></g></g></svg>