<svg xmlns="http://www.w3.org/2000/svg" xmlns:xlink="http://www.w3.org/1999/xlink" width="145" zoomAndPan="magnify" viewBox="0 0 108.75 119.999999" height="160" preserveAspectRatio="xMidYMid meet" version="1.2"><defs><clipPath id="56d1dce771"><path d="M 65.867188 61 L 81 61 L 81 78.195312 L 65.867188 78.195312 Z M 65.867188 61 "/></clipPath><clipPath id="72dd8b9a88"><path d="M 65.867188 74 L 71 74 L 71 78 L 65.867188 78 Z M 65.867188 74 "/></clipPath><clipPath id="9d70f68be0"><path d="M 65.867188 69 L 70 69 L 70 74 L 65.867188 74 Z M 65.867188 69 "/></clipPath><clipPath id="21bf27525f"><path d="M 65.867188 44.523438 L 69 44.523438 L 69 56 L 65.867188 56 Z M 65.867188 44.523438 "/></clipPath><clipPath id="5a20c67d4e"><path d="M 65.867188 55 L 69 55 L 69 58 L 65.867188 58 Z M 65.867188 55 "/></clipPath><clipPath id="0be2ecea28"><path d="M 67 52 L 86.820312 52 L 86.820312 65 L 67 65 Z M 67 52 "/></clipPath><clipPath id="837f79d05d"><path d="M 65.867188 69 L 70 69 L 70 74 L 65.867188 74 Z M 65.867188 69 "/></clipPath><clipPath id="fe1cb4cffc"><path d="M 65.867188 69 L 71 69 L 71 74 L 65.867188 74 Z M 65.867188 69 "/></clipPath><clipPath id="7fe98c8834"><path d="M 65.867188 69 L 70 69 L 70 74 L 65.867188 74 Z M 65.867188 69 "/></clipPath><clipPath id="aa153fef3c"><path d="M 65.867188 69 L 71 69 L 71 74 L 65.867188 74 Z M 65.867188 69 "/></clipPath><clipPath id="5dfcc1bd07"><path d="M 65.867188 74 L 71 74 L 71 78 L 65.867188 78 Z M 65.867188 74 "/></clipPath><clipPath id="aedd47ca3f"><path d="M 65.867188 61 L 81 61 L 81 78.195312 L 65.867188 78.195312 Z M 65.867188 61 "/></clipPath><clipPath id="04e0e3d4a0"><path d="M 65.867188 57 L 67 57 L 67 60 L 65.867188 60 Z M 65.867188 57 "/></clipPath><clipPath id="62277c5501"><path d="M 65.867188 50 L 67 50 L 67 53 L 65.867188 53 Z M 65.867188 50 "/></clipPath><clipPath id="e0e851c8a7"><path d="M 65.867188 54 L 69 54 L 69 58 L 65.867188 58 Z M 65.867188 54 "/></clipPath><clipPath id="f37958406e"><path d="M 65.867188 44.523438 L 69 44.523438 L 69 56 L 65.867188 56 Z M 65.867188 44.523438 "/></clipPath><clipPath id="6cc463d824"><path d="M 14.949219 49.972656 L 26 49.972656 L 26 64.191406 L 14.949219 64.191406 Z M 14.949219 49.972656 "/></clipPath><clipPath id="8fc920f3ce"><path d="M 20 49.972656 L 38.894531 49.972656 L 38.894531 64.191406 L 20 64.191406 Z M 20 49.972656 "/></clipPath><clipPath id="3f8c382e59"><path d="M 38.859375 49.972656 L 51.578125 49.972656 L 51.578125 64.9375 L 38.859375 64.9375 Z M 38.859375 49.972656 "/></clipPath><clipPath id="2dc81a72ad"><path d="M 48.050781 49.890625 L 65.261719 49.890625 L 65.261719 64.855469 L 48.050781 64.855469 Z M 48.050781 49.890625 "/></clipPath><clipPath id="3f23642e0e"><path d="M 30.675781 32 L 83 32 L 83 51 L 30.675781 51 Z M 30.675781 32 "/></clipPath></defs><g id="433e0d50b7"><g clip-rule="nonzero" clip-path="url(#56d1dce771)"><path style="fill:none;stroke-width:7.031;stroke-linecap:butt;stroke-linejoin:miter;stroke:#808080;stroke-opacity:0.2;stroke-miterlimit:10;" d="M 114.558072 396.014378 C 114.558072 401.755602 113.494849 407.27168 111.312444 412.506325 C 109.130038 417.797257 105.996328 422.469037 101.967271 426.521665 C 97.938215 430.518008 93.237649 433.670052 87.977492 435.865226 C 82.717335 438.004113 77.233342 439.129843 71.525512 439.129843 C 65.761723 439.129843 60.277729 438.004113 55.017572 435.865226 C 49.757415 433.670052 45.05685 430.518008 41.027793 426.521665 C 36.998737 422.469037 33.865026 417.797257 31.682621 412.506325 C 29.500215 407.27168 28.436992 401.755602 28.436992 396.014378 C 28.436992 390.32944 29.500215 384.813363 31.682621 379.578717 C 33.865026 374.287786 36.998737 369.616005 41.027793 365.563377 C 45.05685 361.510748 49.757415 358.41499 55.017572 356.219816 C 60.277729 354.080929 65.761723 352.955199 71.525512 352.955199 C 77.233342 352.955199 82.717335 354.080929 87.977492 356.219816 C 93.237649 358.41499 97.938215 361.510748 101.967271 365.563377 C 105.996328 369.616005 109.130038 374.287786 111.312444 379.578717 C 113.494849 384.813363 114.558072 390.32944 114.558072 396.014378 Z M 114.558072 396.014378 " transform="matrix(0.0698054,0,0,0.0693994,65.897756,43.899652)"/><path style="fill:none;stroke-width:7.031;stroke-linecap:butt;stroke-linejoin:miter;stroke:#808080;stroke-opacity:0.2;stroke-miterlimit:10;" d="M 114.558072 396.014378 C 114.558072 401.755602 113.494849 407.27168 111.312444 412.506325 C 109.130038 417.797257 105.996328 422.469037 101.967271 426.521665 C 97.938215 430.518008 93.237649 433.670052 87.977492 435.865226 C 82.717335 438.004113 77.233342 439.129843 71.525512 439.129843 C 65.761723 439.129843 60.277729 438.004113 55.017572 435.865226 C 49.757415 433.670052 45.05685 430.518008 41.027793 426.521665 C 36.998737 422.469037 33.865026 417.797257 31.682621 412.506325 C 29.500215 407.27168 28.436992 401.755602 28.436992 396.014378 C 28.436992 390.32944 29.500215 384.813363 31.682621 379.578717 C 33.865026 374.287786 36.998737 369.616005 41.027793 365.563377 C 45.05685 361.510748 49.757415 358.41499 55.017572 356.219816 C 60.277729 354.080929 65.761723 352.955199 71.525512 352.955199 C 77.233342 352.955199 82.717335 354.080929 87.977492 356.219816 C 93.237649 358.41499 97.938215 361.510748 101.967271 365.563377 C 105.996328 369.616005 109.130038 374.287786 111.312444 379.578717 C 113.494849 384.813363 114.558072 390.32944 114.558072 396.014378 Z M 114.558072 396.014378 " transform="matrix(0.0698054,0,0,0.0693994,65.897756,43.899652)"/></g><path style=" stroke:none;fill-rule:nonzero;fill:#808080;fill-opacity:0.2;" d="M 68.496094 65.378906 C 68.496094 65.378906 78.75 69.183594 80.941406 60.40625 C 80.941406 60.40625 79.925781 71.136719 68.496094 65.378906 Z M 68.496094 65.378906 "/><g clip-rule="nonzero" clip-path="url(#72dd8b9a88)"><path style=" stroke:none;fill-rule:nonzero;fill:#808080;fill-opacity:0.2;" d="M 65.992188 74.808594 L 66.1875 74.808594 L 67.339844 74.359375 L 70.296875 75.082031 L 67.902344 77.324219 C 67.902344 77.324219 66.421875 78.195312 65.992188 77.921875 Z M 65.992188 74.808594 "/></g><g clip-rule="nonzero" clip-path="url(#9d70f68be0)"><path style=" stroke:none;fill-rule:nonzero;fill:#808080;fill-opacity:0.2;" d="M 68.742188 69.835938 C 68.742188 69.835938 70.203125 70.335938 69.550781 71.433594 C 68.898438 72.527344 67.546875 72.378906 66.917969 73.324219 C 66.917969 73.324219 66.40625 73.898438 65.898438 73.75 L 65.898438 73.324219 C 65.898438 73.324219 66.71875 73.125 67.195312 72.453125 C 67.195312 72.453125 68.847656 71.878906 69.097656 71.40625 C 69.351562 70.933594 68.742188 69.835938 68.742188 69.835938 Z M 68.742188 69.835938 "/></g><g clip-rule="nonzero" clip-path="url(#21bf27525f)"><path style=" stroke:none;fill-rule:nonzero;fill:#999999;fill-opacity:0.2;" d="M 65.898438 44.804688 L 65.898438 48.167969 C 65.898438 48.167969 69.425781 51.71875 65.898438 54.464844 L 65.898438 55.753906 C 65.898438 55.753906 69.886719 52.738281 68.574219 50.074219 C 67.761719 48.429688 65.898438 45.308594 65.898438 44.804688 Z M 65.898438 44.804688 "/></g><g clip-rule="nonzero" clip-path="url(#5a20c67d4e)"><path style=" stroke:none;fill-rule:nonzero;fill:#808080;fill-opacity:0.2;" d="M 65.898438 56.296875 L 65.898438 57.398438 C 65.898438 57.398438 68.066406 57.679688 68.574219 55.101562 C 68.574219 55.101562 67.640625 56.316406 65.898438 56.296875 Z M 65.898438 56.296875 "/></g><path style=" stroke:none;fill-rule:nonzero;fill:#999999;fill-opacity:0.2;" d="M 67.367188 64.796875 C 67.367188 64.796875 69.613281 56.210938 77.808594 55.960938 C 77.808594 55.960938 70.761719 57.457031 67.367188 64.796875 Z M 67.367188 64.796875 "/><path style=" stroke:none;fill-rule:nonzero;fill:#333333;fill-opacity:1;" d="M 77.09375 62.617188 C 77.09375 62.898438 77.027344 63.171875 76.890625 63.433594 C 76.757812 63.691406 76.566406 63.921875 76.320312 64.125 C 76.070312 64.324219 75.785156 64.476562 75.460938 64.585938 C 75.136719 64.695312 74.800781 64.75 74.449219 64.75 C 74.101562 64.75 73.761719 64.695312 73.4375 64.585938 C 73.113281 64.476562 72.828125 64.324219 72.582031 64.125 C 72.332031 63.921875 72.144531 63.691406 72.007812 63.433594 C 71.875 63.171875 71.808594 62.898438 71.808594 62.617188 C 71.808594 62.332031 71.875 62.058594 72.007812 61.800781 C 72.144531 61.539062 72.332031 61.308594 72.582031 61.105469 C 72.828125 60.90625 73.113281 60.753906 73.4375 60.644531 C 73.761719 60.535156 74.101562 60.480469 74.449219 60.480469 C 74.800781 60.480469 75.136719 60.535156 75.460938 60.644531 C 75.785156 60.753906 76.070312 60.90625 76.320312 61.105469 C 76.566406 61.308594 76.757812 61.539062 76.890625 61.800781 C 77.027344 62.058594 77.09375 62.332031 77.09375 62.617188 Z M 77.09375 62.617188 "/><path style=" stroke:none;fill-rule:nonzero;fill:#000000;fill-opacity:1;" d="M 75.945312 62.726562 C 75.945312 62.917969 75.90625 63.101562 75.832031 63.28125 C 75.757812 63.457031 75.652344 63.613281 75.515625 63.75 C 75.382812 63.882812 75.222656 63.988281 75.046875 64.0625 C 74.867188 64.136719 74.683594 64.171875 74.488281 64.171875 C 74.296875 64.171875 74.109375 64.136719 73.933594 64.0625 C 73.753906 63.988281 73.597656 63.882812 73.460938 63.75 C 73.324219 63.613281 73.21875 63.457031 73.144531 63.28125 C 73.070312 63.101562 73.035156 62.917969 73.035156 62.726562 C 73.035156 62.535156 73.070312 62.351562 73.144531 62.171875 C 73.21875 61.996094 73.324219 61.839844 73.460938 61.703125 C 73.597656 61.570312 73.753906 61.464844 73.933594 61.390625 C 74.109375 61.316406 74.296875 61.28125 74.488281 61.28125 C 74.683594 61.28125 74.867188 61.316406 75.046875 61.390625 C 75.222656 61.464844 75.382812 61.570312 75.515625 61.703125 C 75.652344 61.839844 75.757812 61.996094 75.832031 62.171875 C 75.90625 62.351562 75.945312 62.535156 75.945312 62.726562 Z M 75.945312 62.726562 "/><g clip-rule="nonzero" clip-path="url(#0be2ecea28)"><path style="fill-rule:nonzero;fill:#000000;fill-opacity:1;stroke-width:0.351;stroke-linecap:butt;stroke-linejoin:miter;stroke:#000000;stroke-opacity:1;stroke-miterlimit:10;" d="M 23.456631 293.854365 C 23.456631 293.854365 14.335295 98.596467 299.446994 124.600834 C 299.446994 124.600834 111.983953 97.301877 23.456631 293.854365 Z M 23.456631 293.854365 " transform="matrix(0.0698054,0,0,0.0693994,65.897756,43.899652)"/></g><path style="fill-rule:nonzero;fill:#000000;fill-opacity:1;stroke-width:0.351;stroke-linecap:butt;stroke-linejoin:miter;stroke:#000000;stroke-opacity:1;stroke-miterlimit:10;" d="M 40.971834 303.648217 C 41.19567 303.423071 41.139711 301.67819 41.19567 301.34047 C 41.419507 299.201583 41.811221 297.118982 42.258894 295.036382 C 43.881708 287.775422 46.511787 280.795895 49.925293 274.210373 C 54.961613 264.75424 61.732666 256.254977 69.73482 249.162877 C 80.646848 239.594171 93.629363 232.614644 107.339346 227.886577 C 120.657616 223.214797 134.647395 220.625617 148.637174 219.274741 C 155.576105 218.655589 162.459076 218.430443 169.342048 217.980151 C 175.889264 217.586146 182.548399 218.48673 189.207534 217.980151 C 200.567235 217.135854 211.759058 214.546674 222.335331 210.2689 C 238.955189 203.627092 253.896273 192.820082 265.535769 179.198747 C 264.920219 179.874185 264.86426 182.294505 264.640423 183.251376 C 264.248709 184.827398 263.745077 186.347134 263.241445 187.923156 C 262.178222 190.850054 260.891162 193.720666 259.380266 196.422419 C 256.974024 200.75648 253.952232 204.752822 250.594685 208.411445 C 245.950078 213.589804 240.522044 218.092724 234.702296 221.920207 C 217.243051 233.515228 196.42626 239.312738 175.833305 242.239637 C 173.6509 242.577356 171.412535 242.858788 169.230129 243.083934 C 78.128687 253.496938 56.024836 290.983753 40.971834 303.648217 Z M 40.971834 303.648217 " transform="matrix(0.0698054,0,0,0.0693994,65.897756,43.899652)"/><path style="fill-rule:nonzero;fill:#000000;fill-opacity:1;stroke-width:0.351;stroke-linecap:butt;stroke-linejoin:miter;stroke:#000000;stroke-opacity:1;stroke-miterlimit:10;" d="M 37.222573 306.012251 C 37.222573 306.012251 184.115254 360.83531 215.508319 234.359525 C 215.508319 234.359525 200.958948 388.922278 37.222573 306.012251 Z M 37.222573 306.012251 " transform="matrix(0.0698054,0,0,0.0693994,65.897756,43.899652)"/><path style="fill-rule:nonzero;fill:#000000;fill-opacity:1;stroke-width:0.351;stroke-linecap:butt;stroke-linejoin:miter;stroke:#000000;stroke-opacity:1;stroke-miterlimit:10;" d="M 37.222573 306.012251 C 37.222573 306.012251 184.115254 360.83531 215.508319 234.359525 C 215.508319 234.359525 200.958948 388.922278 37.222573 306.012251 Z M 37.222573 306.012251 " transform="matrix(0.0698054,0,0,0.0693994,65.897756,43.899652)"/><g clip-rule="nonzero" clip-path="url(#837f79d05d)"><path style=" stroke:none;fill-rule:nonzero;fill:#000000;fill-opacity:1;" d="M 68.742188 69.707031 C 68.742188 69.707031 70.203125 70.203125 69.550781 71.300781 C 68.898438 72.398438 67.546875 72.246094 66.917969 73.195312 C 66.917969 73.195312 66.40625 73.769531 65.898438 73.617188 L 65.898438 73.195312 C 65.898438 73.195312 66.71875 72.996094 67.195312 72.320312 C 67.195312 72.320312 68.847656 71.75 69.097656 71.277344 C 69.351562 70.804688 68.742188 69.707031 68.742188 69.707031 Z M 68.742188 69.707031 "/></g><g clip-rule="nonzero" clip-path="url(#fe1cb4cffc)"><path style="fill:none;stroke-width:0.351;stroke-linecap:butt;stroke-linejoin:miter;stroke:#000000;stroke-opacity:1;stroke-miterlimit:10;" d="M 40.747998 371.867466 C 40.747998 371.867466 61.676707 379.015852 52.331535 394.832361 C 42.986362 410.64887 23.624508 408.453696 14.61509 422.131318 C 14.61509 422.131318 7.284446 430.405435 0.00976065 428.210261 L 0.00976065 422.131318 C 0.00976065 422.131318 11.761175 419.260706 18.588187 409.52314 C 18.588187 409.52314 42.258894 401.30531 45.840277 394.494642 C 49.47762 387.683975 40.747998 371.867466 40.747998 371.867466 Z M 40.747998 371.867466 " transform="matrix(0.0698054,0,0,0.0693994,65.897756,43.899652)"/></g><g clip-rule="nonzero" clip-path="url(#7fe98c8834)"><path style=" stroke:none;fill-rule:nonzero;fill:#000000;fill-opacity:1;" d="M 68.742188 69.707031 C 68.742188 69.707031 70.203125 70.203125 69.550781 71.300781 C 68.898438 72.398438 67.546875 72.246094 66.917969 73.195312 C 66.917969 73.195312 66.40625 73.769531 65.898438 73.617188 L 65.898438 73.195312 C 65.898438 73.195312 66.71875 72.996094 67.195312 72.320312 C 67.195312 72.320312 68.847656 71.75 69.097656 71.277344 C 69.351562 70.804688 68.742188 69.707031 68.742188 69.707031 Z M 68.742188 69.707031 "/></g><g clip-rule="nonzero" clip-path="url(#aa153fef3c)"><path style="fill:none;stroke-width:0.351;stroke-linecap:butt;stroke-linejoin:miter;stroke:#000000;stroke-opacity:1;stroke-miterlimit:10;" d="M 40.747998 371.867466 C 40.747998 371.867466 61.676707 379.015852 52.331535 394.832361 C 42.986362 410.64887 23.624508 408.453696 14.61509 422.131318 C 14.61509 422.131318 7.284446 430.405435 0.00976065 428.210261 L 0.00976065 422.131318 C 0.00976065 422.131318 11.761175 419.260706 18.588187 409.52314 C 18.588187 409.52314 42.258894 401.30531 45.840277 394.494642 C 49.47762 387.683975 40.747998 371.867466 40.747998 371.867466 Z M 40.747998 371.867466 " transform="matrix(0.0698054,0,0,0.0693994,65.897756,43.899652)"/></g><g clip-rule="nonzero" clip-path="url(#5dfcc1bd07)"><path style=" stroke:none;fill-rule:nonzero;fill:#e91d25;fill-opacity:1;" d="M 65.898438 74.714844 L 66.09375 74.714844 L 67.246094 74.265625 L 70.203125 74.988281 L 67.808594 77.230469 C 67.808594 77.230469 66.328125 78.101562 65.898438 77.828125 Z M 65.898438 74.714844 "/><path style=" stroke:none;fill-rule:nonzero;fill:#ff0000;fill-opacity:1;" d="M 65.898438 74.714844 L 66.09375 74.714844 L 67.246094 74.265625 L 70.203125 74.988281 L 68.113281 76.945312 C 67.882812 77.160156 67.621094 77.34375 67.335938 77.484375 C 66.863281 77.714844 66.171875 78.003906 65.894531 77.828125 L 65.894531 74.714844 Z M 65.898438 74.714844 "/></g><g clip-rule="nonzero" clip-path="url(#aedd47ca3f)"><path style="fill:none;stroke-width:7.031;stroke-linecap:butt;stroke-linejoin:miter;stroke:#e91d25;stroke-opacity:1;stroke-miterlimit:10;" d="M 115.453418 393.425198 C 115.453418 399.110136 114.390195 404.626214 112.20779 409.860859 C 109.969425 415.151791 106.891673 419.823571 102.862617 423.8762 C 98.777602 427.928828 94.132995 431.024586 88.872838 433.21976 C 83.612681 435.414934 78.072728 436.484377 72.364898 436.484377 C 66.657069 436.484377 61.173075 435.414934 55.912918 433.21976 C 50.596802 431.024586 45.952195 427.928828 41.923139 423.8762 C 37.894083 419.823571 34.760372 415.151791 32.577967 409.860859 C 30.395561 404.626214 29.276379 399.110136 29.276379 393.425198 C 29.276379 387.683975 30.395561 382.167897 32.577967 376.933251 C 34.760372 371.64232 37.894083 366.970539 41.923139 362.917911 C 45.952195 358.921569 50.596802 355.769524 55.912918 353.57435 C 61.173075 351.435463 66.657069 350.309733 72.364898 350.309733 C 78.072728 350.309733 83.612681 351.435463 88.872838 353.57435 C 94.132995 355.769524 98.777602 358.921569 102.862617 362.917911 C 106.891673 366.970539 109.969425 371.64232 112.20779 376.933251 C 114.390195 382.167897 115.453418 387.683975 115.453418 393.425198 Z M 115.453418 393.425198 " transform="matrix(0.0698054,0,0,0.0693994,65.897756,43.899652)"/><path style="fill:none;stroke-width:7.031;stroke-linecap:butt;stroke-linejoin:miter;stroke:#ff0000;stroke-opacity:1;stroke-miterlimit:10;" d="M 115.453418 393.425198 C 115.453418 399.110136 114.390195 404.626214 112.20779 409.860859 C 109.969425 415.151791 106.891673 419.823571 102.862617 423.8762 C 98.777602 427.928828 94.132995 431.024586 88.872838 433.21976 C 83.612681 435.414934 78.072728 436.484377 72.364898 436.484377 C 66.657069 436.484377 61.173075 435.414934 55.912918 433.21976 C 50.596802 431.024586 45.952195 427.928828 41.923139 423.8762 C 37.894083 419.823571 34.760372 415.151791 32.577967 409.860859 C 30.395561 404.626214 29.276379 399.110136 29.276379 393.425198 C 29.276379 387.683975 30.395561 382.167897 32.577967 376.933251 C 34.760372 371.64232 37.894083 366.970539 41.923139 362.917911 C 45.952195 358.921569 50.596802 355.769524 55.912918 353.57435 C 61.173075 351.435463 66.657069 350.309733 72.364898 350.309733 C 78.072728 350.309733 83.612681 351.435463 88.872838 353.57435 C 94.132995 355.769524 98.777602 358.921569 102.862617 362.917911 C 106.891673 366.970539 109.969425 371.64232 112.20779 376.933251 C 114.390195 382.167897 115.453418 387.683975 115.453418 393.425198 Z M 115.453418 393.425198 " transform="matrix(0.0698054,0,0,0.0693994,65.897756,43.899652)"/></g><path style=" stroke:none;fill-rule:nonzero;fill:#e91d25;fill-opacity:1;" d="M 72.707031 74.265625 C 72.707031 74.355469 72.675781 74.433594 72.613281 74.496094 C 72.550781 74.558594 72.472656 74.589844 72.382812 74.589844 C 72.292969 74.589844 72.214844 74.558594 72.152344 74.496094 C 72.085938 74.433594 72.054688 74.355469 72.054688 74.265625 C 72.054688 74.175781 72.085938 74.101562 72.152344 74.035156 C 72.214844 73.972656 72.292969 73.941406 72.382812 73.941406 C 72.472656 73.941406 72.550781 73.972656 72.613281 74.035156 C 72.675781 74.101562 72.707031 74.175781 72.707031 74.265625 Z M 72.707031 74.265625 "/><path style=" stroke:none;fill-rule:nonzero;fill:#ffffff;fill-opacity:1;" d="M 75.796875 62.355469 C 75.796875 62.601562 75.707031 62.8125 75.53125 62.988281 C 75.355469 63.164062 75.140625 63.253906 74.890625 63.253906 C 74.640625 63.253906 74.425781 63.164062 74.25 62.988281 C 74.074219 62.8125 73.984375 62.601562 73.984375 62.355469 C 73.984375 62.105469 74.074219 61.894531 74.25 61.71875 C 74.425781 61.542969 74.640625 61.453125 74.890625 61.453125 C 75.140625 61.453125 75.355469 61.542969 75.53125 61.71875 C 75.707031 61.894531 75.796875 62.105469 75.796875 62.355469 Z M 75.796875 62.355469 "/><path style="fill-rule:nonzero;fill:#000000;fill-opacity:1;stroke-width:0.351;stroke-linecap:butt;stroke-linejoin:miter;stroke:#000000;stroke-opacity:1;stroke-miterlimit:10;" d="M 23.064917 296.274685 C 23.064917 296.274685 55.18545 175.540124 172.587676 171.937787 C 172.587676 171.937787 71.693389 190.512335 23.064917 296.274685 Z M 23.064917 296.274685 " transform="matrix(0.0698054,0,0,0.0693994,65.897756,43.899652)"/><path style=" stroke:none;fill-rule:nonzero;fill:#ffffff;fill-opacity:1;" d="M 74.203125 63.828125 C 74.203125 63.972656 74.132812 64.042969 73.984375 64.042969 C 73.839844 64.042969 73.765625 63.972656 73.765625 63.828125 C 73.765625 63.679688 73.839844 63.609375 73.984375 63.609375 C 74.132812 63.609375 74.203125 63.679688 74.203125 63.828125 Z M 74.203125 63.828125 "/><g clip-rule="nonzero" clip-path="url(#04e0e3d4a0)"><path style=" stroke:none;fill-rule:nonzero;fill:#ff0000;fill-opacity:1;" d="M 65.898438 57.496094 C 66.367188 57.496094 66.746094 57.875 66.746094 58.339844 C 66.746094 58.804688 66.367188 59.179688 65.898438 59.179688 "/></g><g clip-rule="nonzero" clip-path="url(#62277c5501)"><path style=" stroke:none;fill-rule:nonzero;fill:#ff0000;fill-opacity:1;" d="M 65.898438 50.878906 C 66.367188 50.878906 66.746094 51.257812 66.746094 51.722656 C 66.746094 52.1875 66.367188 52.566406 65.898438 52.566406 "/></g><g clip-rule="nonzero" clip-path="url(#e0e851c8a7)"><path style=" stroke:none;fill-rule:nonzero;fill:#ff0000;fill-opacity:1;" d="M 65.898438 56.128906 L 65.898438 57.230469 C 65.898438 57.230469 68.066406 57.511719 68.574219 54.933594 C 68.574219 54.933594 67.640625 56.148438 65.898438 56.128906 Z M 65.898438 56.128906 "/></g><g clip-rule="nonzero" clip-path="url(#f37958406e)"><path style=" stroke:none;fill-rule:nonzero;fill:#ff0000;fill-opacity:1;" d="M 65.898438 44.523438 L 65.898438 47.886719 C 65.898438 47.886719 69.425781 51.4375 65.898438 54.183594 L 65.898438 55.472656 C 65.898438 55.472656 69.886719 52.460938 68.574219 49.792969 C 67.761719 48.148438 65.898438 45.027344 65.898438 44.523438 Z M 65.898438 44.523438 "/><path style=" stroke:none;fill-rule:nonzero;fill:#ff0000;fill-opacity:1;" d="M 65.898438 44.523438 L 65.898438 47.886719 C 65.898438 47.886719 69.425781 51.4375 65.898438 54.183594 L 65.898438 55.472656 C 65.898438 55.472656 69.886719 52.460938 68.574219 49.792969 C 67.761719 48.148438 65.898438 45.027344 65.898438 44.523438 Z M 65.898438 44.523438 "/></g><g style="fill:#ff3131;fill-opacity:1;"><g transform="translate(3.387612, 67.85261)"><path style="stroke:none" d="M 27.71875 -11.84375 C 27.738281 -11.851562 27.753906 -11.851562 27.765625 -11.84375 C 27.785156 -11.84375 27.796875 -11.832031 27.796875 -11.8125 C 27.816406 -11.789062 27.8125 -11.757812 27.78125 -11.71875 C 26.113281 -11.03125 24.425781 -10.378906 22.71875 -9.765625 C 21.007812 -9.148438 19.296875 -8.570312 17.578125 -8.03125 L 19.484375 2.015625 C 19.523438 2.316406 19.398438 2.503906 19.109375 2.578125 C 19.046875 2.578125 18.984375 2.570312 18.921875 2.5625 C 18.867188 2.550781 18.8125 2.535156 18.75 2.515625 C 17.695312 1.835938 16.640625 1.164062 15.578125 0.5 C 14.523438 -0.164062 13.460938 -0.820312 12.390625 -1.46875 C 11.429688 -2.09375 10.363281 -2.738281 9.1875 -3.40625 C 8.019531 -4.082031 6.910156 -4.632812 5.859375 -5.0625 C 5.640625 -5.164062 5.582031 -5.316406 5.6875 -5.515625 C 5.707031 -5.609375 5.796875 -5.675781 5.953125 -5.71875 C 7.691406 -6.007812 9.429688 -6.351562 11.171875 -6.75 C 12.921875 -7.15625 14.65625 -7.601562 16.375 -8.09375 L 16.171875 -9.078125 C 15.472656 -12.304688 14.800781 -15.53125 14.15625 -18.75 C 12.082031 -15.5625 9.894531 -12.425781 7.59375 -9.34375 C 5.300781 -6.257812 2.789062 -3.378906 0.0625 -0.703125 C 0.0390625 -0.679688 0.0078125 -0.679688 -0.03125 -0.703125 C -0.0507812 -0.742188 -0.0507812 -0.773438 -0.03125 -0.796875 C 1.257812 -2.378906 2.515625 -3.988281 3.734375 -5.625 C 4.953125 -7.269531 6.128906 -8.929688 7.265625 -10.609375 C 8.441406 -12.265625 9.578125 -13.953125 10.671875 -15.671875 C 11.773438 -17.390625 12.859375 -19.109375 13.921875 -20.828125 C 14.035156 -21.046875 14.21875 -21.15625 14.46875 -21.15625 C 14.53125 -21.15625 14.585938 -21.144531 14.640625 -21.125 C 14.703125 -21.101562 14.765625 -21.070312 14.828125 -21.03125 C 14.984375 -20.9375 15.082031 -20.789062 15.125 -20.59375 C 15.507812 -18.71875 15.878906 -16.835938 16.234375 -14.953125 C 16.597656 -13.066406 16.957031 -11.175781 17.3125 -9.28125 L 17.484375 -8.40625 C 19.222656 -8.914062 20.945312 -9.453125 22.65625 -10.015625 C 24.363281 -10.585938 26.050781 -11.195312 27.71875 -11.84375 Z M 7.125 -5.25 C 8.09375 -4.800781 9.050781 -4.3125 10 -3.78125 C 10.945312 -3.25 11.878906 -2.710938 12.796875 -2.171875 C 13.722656 -1.617188 14.648438 -1.066406 15.578125 -0.515625 C 16.503906 0.0234375 17.414062 0.578125 18.3125 1.140625 L 16.46875 -7.671875 C 14.925781 -7.203125 13.378906 -6.765625 11.828125 -6.359375 C 10.273438 -5.953125 8.707031 -5.582031 7.125 -5.25 Z M 7.125 -5.25 "/></g></g><g clip-rule="nonzero" clip-path="url(#6cc463d824)"><path style=" stroke:none;fill-rule:nonzero;fill:#22a7f2;fill-opacity:1;" d="M 22.980469 56.816406 L 25.53125 56.816406 L 22.980469 49.976562 L 20.246094 49.976562 L 17.757812 56.652344 L 14.949219 64.1875 L 17.5 64.1875 L 20.308594 56.652344 L 21.613281 53.15625 L 22.980469 56.816406 "/></g><g clip-rule="nonzero" clip-path="url(#8fc920f3ce)"><path style=" stroke:none;fill-rule:nonzero;fill:#ff3131;fill-opacity:1;" d="M 31.203125 49.976562 L 24.523438 49.976562 L 28.34375 60.226562 L 30.894531 60.226562 L 27.964844 52.367188 L 31.203125 52.367188 C 33.808594 52.367188 35.917969 54.480469 35.917969 57.082031 C 35.917969 59.6875 33.808594 61.796875 31.203125 61.796875 L 27.386719 61.796875 L 26.695312 59.9375 L 26.117188 58.390625 L 21.441406 58.390625 L 20.640625 60.78125 L 24.457031 60.78125 L 25.726562 64.1875 L 31.320312 64.1875 C 35.191406 64.125 38.308594 60.96875 38.308594 57.082031 C 38.308594 53.160156 35.128906 49.976562 31.203125 49.976562 "/></g><g clip-rule="nonzero" clip-path="url(#3f8c382e59)"><path style=" stroke:none;fill-rule:nonzero;fill:#22a7f2;fill-opacity:1;" d="M 38.867188 49.972656 L 45.183594 55.484375 L 45.183594 64.636719 L 42.027344 61.277344 L 42.027344 57.132812 L 38.867188 54.242188 Z M 45.253906 55.484375 L 48.410156 57.132812 L 51.570312 54.242188 L 51.570312 49.972656 Z M 45.253906 55.484375 "/></g><g clip-rule="nonzero" clip-path="url(#2dc81a72ad)"><path style=" stroke:none;fill-rule:nonzero;fill:#22a7f2;fill-opacity:1;" d="M 56.617188 49.859375 L 51.4375 58.828125 L 56.871094 58.828125 L 55.53125 56.566406 L 56.617188 54.710938 L 59.988281 60.464844 L 50.492188 60.464844 L 48.175781 64.472656 L 50.894531 64.472656 L 51.785156 62.949219 L 61.445312 62.949219 L 62.339844 64.472656 L 65.054688 64.472656 Z M 56.617188 49.859375 "/></g><g style="fill:#000000;fill-opacity:1;"><g transform="translate(24.467052, 69.889159)"><path style="stroke:none" d="M 1.1875 -2.9375 L 0.015625 -2.9375 L 0.015625 -3.78125 L 3.40625 -3.78125 L 3.40625 -2.9375 L 2.25 -2.9375 L 2.25 0 L 1.1875 0 Z M 1.1875 -2.9375 "/></g></g><g style="fill:#000000;fill-opacity:1;"><g transform="translate(27.901074, 69.889159)"><path style="stroke:none" d="M 3.421875 -0.828125 L 3.421875 0 L 0.375 0 L 0.375 -3.78125 L 3.34375 -3.78125 L 3.34375 -2.953125 L 1.4375 -2.953125 L 1.4375 -2.3125 L 3.125 -2.3125 L 3.125 -1.515625 L 1.4375 -1.515625 L 1.4375 -0.828125 Z M 3.421875 -0.828125 "/></g></g><g style="fill:#000000;fill-opacity:1;"><g transform="translate(31.535188, 69.889159)"><path style="stroke:none" d="M 2.265625 0.078125 C 1.867188 0.078125 1.507812 -0.00390625 1.1875 -0.171875 C 0.875 -0.335938 0.628906 -0.570312 0.453125 -0.875 C 0.273438 -1.175781 0.1875 -1.515625 0.1875 -1.890625 C 0.1875 -2.265625 0.273438 -2.601562 0.453125 -2.90625 C 0.628906 -3.207031 0.875 -3.441406 1.1875 -3.609375 C 1.507812 -3.773438 1.867188 -3.859375 2.265625 -3.859375 C 2.609375 -3.859375 2.914062 -3.796875 3.1875 -3.671875 C 3.46875 -3.554688 3.703125 -3.378906 3.890625 -3.140625 L 3.21875 -2.53125 C 2.96875 -2.820312 2.664062 -2.96875 2.3125 -2.96875 C 2.113281 -2.96875 1.929688 -2.921875 1.765625 -2.828125 C 1.609375 -2.742188 1.484375 -2.617188 1.390625 -2.453125 C 1.304688 -2.296875 1.265625 -2.109375 1.265625 -1.890625 C 1.265625 -1.679688 1.304688 -1.492188 1.390625 -1.328125 C 1.484375 -1.160156 1.609375 -1.03125 1.765625 -0.9375 C 1.929688 -0.851562 2.113281 -0.8125 2.3125 -0.8125 C 2.664062 -0.8125 2.96875 -0.957031 3.21875 -1.25 L 3.890625 -0.640625 C 3.703125 -0.410156 3.46875 -0.234375 3.1875 -0.109375 C 2.914062 0.015625 2.609375 0.078125 2.265625 0.078125 Z M 2.265625 0.078125 "/></g></g><g style="fill:#000000;fill-opacity:1;"><g transform="translate(35.526224, 69.889159)"><path style="stroke:none" d="M 3.984375 -3.78125 L 3.984375 0 L 2.90625 0 L 2.90625 -1.46875 L 1.453125 -1.46875 L 1.453125 0 L 0.375 0 L 0.375 -3.78125 L 1.453125 -3.78125 L 1.453125 -2.359375 L 2.90625 -2.359375 L 2.90625 -3.78125 Z M 3.984375 -3.78125 "/></g></g><g style="fill:#000000;fill-opacity:1;"><g transform="translate(39.885, 69.889159)"><path style="stroke:none" d="M 3.984375 -3.78125 L 3.984375 0 L 3.09375 0 L 1.421875 -2.015625 L 1.421875 0 L 0.375 0 L 0.375 -3.78125 L 1.265625 -3.78125 L 2.9375 -1.765625 L 2.9375 -3.78125 Z M 3.984375 -3.78125 "/></g></g><g style="fill:#000000;fill-opacity:1;"><g transform="translate(44.243775, 69.889159)"><path style="stroke:none" d="M 2.28125 0.078125 C 1.882812 0.078125 1.523438 -0.00390625 1.203125 -0.171875 C 0.890625 -0.347656 0.640625 -0.582031 0.453125 -0.875 C 0.273438 -1.175781 0.1875 -1.515625 0.1875 -1.890625 C 0.1875 -2.265625 0.273438 -2.601562 0.453125 -2.90625 C 0.640625 -3.207031 0.890625 -3.441406 1.203125 -3.609375 C 1.523438 -3.773438 1.882812 -3.859375 2.28125 -3.859375 C 2.6875 -3.859375 3.046875 -3.773438 3.359375 -3.609375 C 3.679688 -3.441406 3.929688 -3.207031 4.109375 -2.90625 C 4.296875 -2.601562 4.390625 -2.265625 4.390625 -1.890625 C 4.390625 -1.515625 4.296875 -1.175781 4.109375 -0.875 C 3.929688 -0.582031 3.679688 -0.347656 3.359375 -0.171875 C 3.046875 -0.00390625 2.6875 0.078125 2.28125 0.078125 Z M 2.28125 -0.8125 C 2.476562 -0.8125 2.648438 -0.851562 2.796875 -0.9375 C 2.953125 -1.03125 3.078125 -1.160156 3.171875 -1.328125 C 3.265625 -1.492188 3.3125 -1.679688 3.3125 -1.890625 C 3.3125 -2.109375 3.265625 -2.296875 3.171875 -2.453125 C 3.078125 -2.617188 2.953125 -2.742188 2.796875 -2.828125 C 2.648438 -2.921875 2.476562 -2.96875 2.28125 -2.96875 C 2.09375 -2.96875 1.921875 -2.921875 1.765625 -2.828125 C 1.609375 -2.742188 1.484375 -2.617188 1.390625 -2.453125 C 1.304688 -2.296875 1.265625 -2.109375 1.265625 -1.890625 C 1.265625 -1.679688 1.304688 -1.492188 1.390625 -1.328125 C 1.484375 -1.160156 1.609375 -1.03125 1.765625 -0.9375 C 1.921875 -0.851562 2.09375 -0.8125 2.28125 -0.8125 Z M 2.28125 -0.8125 "/></g></g><g style="fill:#000000;fill-opacity:1;"><g transform="translate(48.818864, 69.889159)"><path style="stroke:none" d="M 0.375 -3.78125 L 1.453125 -3.78125 L 1.453125 -0.84375 L 3.25 -0.84375 L 3.25 0 L 0.375 0 Z M 0.375 -3.78125 "/></g></g><g style="fill:#000000;fill-opacity:1;"><g transform="translate(52.117688, 69.889159)"><path style="stroke:none" d="M 2.28125 0.078125 C 1.882812 0.078125 1.523438 -0.00390625 1.203125 -0.171875 C 0.890625 -0.347656 0.640625 -0.582031 0.453125 -0.875 C 0.273438 -1.175781 0.1875 -1.515625 0.1875 -1.890625 C 0.1875 -2.265625 0.273438 -2.601562 0.453125 -2.90625 C 0.640625 -3.207031 0.890625 -3.441406 1.203125 -3.609375 C 1.523438 -3.773438 1.882812 -3.859375 2.28125 -3.859375 C 2.6875 -3.859375 3.046875 -3.773438 3.359375 -3.609375 C 3.679688 -3.441406 3.929688 -3.207031 4.109375 -2.90625 C 4.296875 -2.601562 4.390625 -2.265625 4.390625 -1.890625 C 4.390625 -1.515625 4.296875 -1.175781 4.109375 -0.875 C 3.929688 -0.582031 3.679688 -0.347656 3.359375 -0.171875 C 3.046875 -0.00390625 2.6875 0.078125 2.28125 0.078125 Z M 2.28125 -0.8125 C 2.476562 -0.8125 2.648438 -0.851562 2.796875 -0.9375 C 2.953125 -1.03125 3.078125 -1.160156 3.171875 -1.328125 C 3.265625 -1.492188 3.3125 -1.679688 3.3125 -1.890625 C 3.3125 -2.109375 3.265625 -2.296875 3.171875 -2.453125 C 3.078125 -2.617188 2.953125 -2.742188 2.796875 -2.828125 C 2.648438 -2.921875 2.476562 -2.96875 2.28125 -2.96875 C 2.09375 -2.96875 1.921875 -2.921875 1.765625 -2.828125 C 1.609375 -2.742188 1.484375 -2.617188 1.390625 -2.453125 C 1.304688 -2.296875 1.265625 -2.109375 1.265625 -1.890625 C 1.265625 -1.679688 1.304688 -1.492188 1.390625 -1.328125 C 1.484375 -1.160156 1.609375 -1.03125 1.765625 -0.9375 C 1.921875 -0.851562 2.09375 -0.8125 2.28125 -0.8125 Z M 2.28125 -0.8125 "/></g></g><g style="fill:#000000;fill-opacity:1;"><g transform="translate(56.692777, 69.889159)"><path style="stroke:none" d="M 2.90625 -1.96875 L 3.859375 -1.96875 L 3.859375 -0.40625 C 3.640625 -0.25 3.390625 -0.128906 3.109375 -0.046875 C 2.828125 0.0351562 2.546875 0.078125 2.265625 0.078125 C 1.867188 0.078125 1.507812 -0.00390625 1.1875 -0.171875 C 0.875 -0.335938 0.628906 -0.570312 0.453125 -0.875 C 0.273438 -1.175781 0.1875 -1.515625 0.1875 -1.890625 C 0.1875 -2.265625 0.273438 -2.601562 0.453125 -2.90625 C 0.628906 -3.207031 0.878906 -3.441406 1.203125 -3.609375 C 1.523438 -3.773438 1.890625 -3.859375 2.296875 -3.859375 C 2.648438 -3.859375 2.96875 -3.796875 3.25 -3.671875 C 3.53125 -3.554688 3.765625 -3.390625 3.953125 -3.171875 L 3.265625 -2.546875 C 3.003906 -2.828125 2.695312 -2.96875 2.34375 -2.96875 C 2.019531 -2.96875 1.757812 -2.867188 1.5625 -2.671875 C 1.363281 -2.484375 1.265625 -2.222656 1.265625 -1.890625 C 1.265625 -1.679688 1.304688 -1.492188 1.390625 -1.328125 C 1.484375 -1.171875 1.609375 -1.046875 1.765625 -0.953125 C 1.929688 -0.859375 2.117188 -0.8125 2.328125 -0.8125 C 2.535156 -0.8125 2.726562 -0.851562 2.90625 -0.9375 Z M 2.90625 -1.96875 "/></g></g><g style="fill:#000000;fill-opacity:1;"><g transform="translate(60.856866, 69.889159)"><path style="stroke:none" d="M 2.40625 -1.359375 L 2.40625 0 L 1.328125 0 L 1.328125 -1.375 L -0.109375 -3.78125 L 1.015625 -3.78125 L 1.921875 -2.28125 L 2.8125 -3.78125 L 3.859375 -3.78125 Z M 2.40625 -1.359375 "/></g></g><path style=" stroke:none;fill-rule:nonzero;fill:#ff3131;fill-opacity:1;" d="M 54.980469 28.203125 C 54.0625 28.476562 53.167969 28.789062 52.300781 29.136719 C 67.34375 26.160156 82.453125 35.078125 86.90625 50.070312 C 91.359375 65.0625 83.5625 80.78125 69.332031 86.496094 C 70.253906 86.316406 71.171875 86.089844 72.089844 85.820312 C 88 81.09375 97.066406 64.367188 92.34375 48.457031 C 87.617188 32.546875 70.890625 23.476562 54.980469 28.203125 "/><path style=" stroke:none;fill-rule:nonzero;fill:#22a7f2;fill-opacity:1;" d="M 92.214844 35.832031 C 91.414062 35.203125 90.597656 34.625 89.761719 34.089844 C 101.558594 45.265625 103.125 63.792969 92.894531 76.839844 C 82.667969 89.882812 64.300781 92.785156 50.632812 83.992188 C 51.351562 84.675781 52.109375 85.332031 52.90625 85.957031 C 66.75 96.8125 86.769531 94.390625 97.625 80.546875 C 108.476562 66.703125 106.054688 46.683594 92.214844 35.832031 "/><g clip-rule="nonzero" clip-path="url(#3f23642e0e)"><path style=" stroke:none;fill-rule:nonzero;fill:#22a7f2;fill-opacity:1;" d="M 62.59375 37.285156 C 70.804688 39.492188 77.554688 44.414062 82.148438 50.824219 C 78.527344 42.828125 71.492188 36.460938 62.355469 34.003906 C 50.421875 30.796875 38.242188 35.164062 30.910156 44.160156 C 39.433594 37.136719 51.117188 34.199219 62.59375 37.285156 "/></g><g style="fill:#000000;fill-opacity:1;"><g transform="translate(35.721093, 75.744089)"><path style="stroke:none" d="M 1.453125 0.0625 C 1.191406 0.0625 0.9375 0.03125 0.6875 -0.03125 C 0.445312 -0.09375 0.25 -0.179688 0.09375 -0.296875 L 0.390625 -0.96875 C 0.535156 -0.875 0.703125 -0.796875 0.890625 -0.734375 C 1.085938 -0.671875 1.28125 -0.640625 1.46875 -0.640625 C 1.8125 -0.640625 1.984375 -0.726562 1.984375 -0.90625 C 1.984375 -1 1.929688 -1.066406 1.828125 -1.109375 C 1.734375 -1.160156 1.578125 -1.207031 1.359375 -1.25 C 1.109375 -1.300781 0.898438 -1.359375 0.734375 -1.421875 C 0.578125 -1.484375 0.441406 -1.578125 0.328125 -1.703125 C 0.210938 -1.835938 0.15625 -2.019531 0.15625 -2.25 C 0.15625 -2.445312 0.207031 -2.625 0.3125 -2.78125 C 0.414062 -2.9375 0.570312 -3.0625 0.78125 -3.15625 C 1 -3.25 1.265625 -3.296875 1.578125 -3.296875 C 1.796875 -3.296875 2.003906 -3.269531 2.203125 -3.21875 C 2.410156 -3.164062 2.59375 -3.097656 2.75 -3.015625 L 2.46875 -2.328125 C 2.164062 -2.492188 1.867188 -2.578125 1.578125 -2.578125 C 1.390625 -2.578125 1.253906 -2.550781 1.171875 -2.5 C 1.097656 -2.445312 1.0625 -2.378906 1.0625 -2.296875 C 1.0625 -2.203125 1.109375 -2.132812 1.203125 -2.09375 C 1.296875 -2.050781 1.453125 -2.007812 1.671875 -1.96875 C 1.921875 -1.914062 2.125 -1.859375 2.28125 -1.796875 C 2.445312 -1.734375 2.585938 -1.632812 2.703125 -1.5 C 2.828125 -1.375 2.890625 -1.203125 2.890625 -0.984375 C 2.890625 -0.785156 2.832031 -0.609375 2.71875 -0.453125 C 2.613281 -0.296875 2.453125 -0.171875 2.234375 -0.078125 C 2.023438 0.015625 1.765625 0.0625 1.453125 0.0625 Z M 1.453125 0.0625 "/></g></g><g style="fill:#000000;fill-opacity:1;"><g transform="translate(38.699052, 75.744089)"><path style="stroke:none" d="M 1.953125 0.0625 C 1.609375 0.0625 1.300781 -0.0078125 1.03125 -0.15625 C 0.757812 -0.300781 0.546875 -0.5 0.390625 -0.75 C 0.234375 -1.007812 0.15625 -1.296875 0.15625 -1.609375 C 0.15625 -1.929688 0.234375 -2.21875 0.390625 -2.46875 C 0.546875 -2.726562 0.757812 -2.929688 1.03125 -3.078125 C 1.300781 -3.222656 1.609375 -3.296875 1.953125 -3.296875 C 2.296875 -3.296875 2.601562 -3.222656 2.875 -3.078125 C 3.144531 -2.929688 3.359375 -2.726562 3.515625 -2.46875 C 3.671875 -2.21875 3.75 -1.929688 3.75 -1.609375 C 3.75 -1.296875 3.671875 -1.007812 3.515625 -0.75 C 3.359375 -0.5 3.144531 -0.300781 2.875 -0.15625 C 2.601562 -0.0078125 2.296875 0.0625 1.953125 0.0625 Z M 1.953125 -0.6875 C 2.109375 -0.6875 2.253906 -0.722656 2.390625 -0.796875 C 2.523438 -0.878906 2.628906 -0.988281 2.703125 -1.125 C 2.785156 -1.269531 2.828125 -1.429688 2.828125 -1.609375 C 2.828125 -1.796875 2.785156 -1.957031 2.703125 -2.09375 C 2.628906 -2.226562 2.523438 -2.332031 2.390625 -2.40625 C 2.253906 -2.488281 2.109375 -2.53125 1.953125 -2.53125 C 1.785156 -2.53125 1.632812 -2.488281 1.5 -2.40625 C 1.375 -2.332031 1.269531 -2.226562 1.1875 -2.09375 C 1.113281 -1.957031 1.078125 -1.796875 1.078125 -1.609375 C 1.078125 -1.429688 1.113281 -1.269531 1.1875 -1.125 C 1.269531 -0.988281 1.375 -0.878906 1.5 -0.796875 C 1.632812 -0.722656 1.785156 -0.6875 1.953125 -0.6875 Z M 1.953125 -0.6875 "/></g></g><g style="fill:#000000;fill-opacity:1;"><g transform="translate(42.592951, 75.744089)"><path style="stroke:none" d="M 0.328125 -3.21875 L 1.234375 -3.21875 L 1.234375 -0.71875 L 2.78125 -0.71875 L 2.78125 0 L 0.328125 0 Z M 0.328125 -3.21875 "/></g></g><g style="fill:#000000;fill-opacity:1;"><g transform="translate(45.400609, 75.744089)"><path style="stroke:none" d="M 1.8125 0.0625 C 1.332031 0.0625 0.957031 -0.0664062 0.6875 -0.328125 C 0.425781 -0.585938 0.296875 -0.957031 0.296875 -1.4375 L 0.296875 -3.21875 L 1.203125 -3.21875 L 1.203125 -1.46875 C 1.203125 -0.945312 1.410156 -0.6875 1.828125 -0.6875 C 2.222656 -0.6875 2.421875 -0.945312 2.421875 -1.46875 L 2.421875 -3.21875 L 3.328125 -3.21875 L 3.328125 -1.4375 C 3.328125 -0.957031 3.191406 -0.585938 2.921875 -0.328125 C 2.660156 -0.0664062 2.289062 0.0625 1.8125 0.0625 Z M 1.8125 0.0625 "/></g></g><g style="fill:#000000;fill-opacity:1;"><g transform="translate(49.018346, 75.744089)"><path style="stroke:none" d="M 1.015625 -2.5 L 0.015625 -2.5 L 0.015625 -3.21875 L 2.90625 -3.21875 L 2.90625 -2.5 L 1.921875 -2.5 L 1.921875 0 L 1.015625 0 Z M 1.015625 -2.5 "/></g></g><g style="fill:#000000;fill-opacity:1;"><g transform="translate(51.941072, 75.744089)"><path style="stroke:none" d="M 0.328125 -3.21875 L 1.234375 -3.21875 L 1.234375 0 L 0.328125 0 Z M 0.328125 -3.21875 "/></g></g><g style="fill:#000000;fill-opacity:1;"><g transform="translate(53.501394, 75.744089)"><path style="stroke:none" d="M 1.953125 0.0625 C 1.609375 0.0625 1.300781 -0.0078125 1.03125 -0.15625 C 0.757812 -0.300781 0.546875 -0.5 0.390625 -0.75 C 0.234375 -1.007812 0.15625 -1.296875 0.15625 -1.609375 C 0.15625 -1.929688 0.234375 -2.21875 0.390625 -2.46875 C 0.546875 -2.726562 0.757812 -2.929688 1.03125 -3.078125 C 1.300781 -3.222656 1.609375 -3.296875 1.953125 -3.296875 C 2.296875 -3.296875 2.601562 -3.222656 2.875 -3.078125 C 3.144531 -2.929688 3.359375 -2.726562 3.515625 -2.46875 C 3.671875 -2.21875 3.75 -1.929688 3.75 -1.609375 C 3.75 -1.296875 3.671875 -1.007812 3.515625 -0.75 C 3.359375 -0.5 3.144531 -0.300781 2.875 -0.15625 C 2.601562 -0.0078125 2.296875 0.0625 1.953125 0.0625 Z M 1.953125 -0.6875 C 2.109375 -0.6875 2.253906 -0.722656 2.390625 -0.796875 C 2.523438 -0.878906 2.628906 -0.988281 2.703125 -1.125 C 2.785156 -1.269531 2.828125 -1.429688 2.828125 -1.609375 C 2.828125 -1.796875 2.785156 -1.957031 2.703125 -2.09375 C 2.628906 -2.226562 2.523438 -2.332031 2.390625 -2.40625 C 2.253906 -2.488281 2.109375 -2.53125 1.953125 -2.53125 C 1.785156 -2.53125 1.632812 -2.488281 1.5 -2.40625 C 1.375 -2.332031 1.269531 -2.226562 1.1875 -2.09375 C 1.113281 -1.957031 1.078125 -1.796875 1.078125 -1.609375 C 1.078125 -1.429688 1.113281 -1.269531 1.1875 -1.125 C 1.269531 -0.988281 1.375 -0.878906 1.5 -0.796875 C 1.632812 -0.722656 1.785156 -0.6875 1.953125 -0.6875 Z M 1.953125 -0.6875 "/></g></g><g style="fill:#000000;fill-opacity:1;"><g transform="translate(57.395294, 75.744089)"><path style="stroke:none" d="M 3.390625 -3.21875 L 3.390625 0 L 2.640625 0 L 1.21875 -1.71875 L 1.21875 0 L 0.328125 0 L 0.328125 -3.21875 L 1.078125 -3.21875 L 2.5 -1.5 L 2.5 -3.21875 Z M 3.390625 -3.21875 "/></g></g><g style="fill:#000000;fill-opacity:1;"><g transform="translate(61.105085, 75.744089)"><path style="stroke:none" d="M 1.453125 0.0625 C 1.191406 0.0625 0.9375 0.03125 0.6875 -0.03125 C 0.445312 -0.09375 0.25 -0.179688 0.09375 -0.296875 L 0.390625 -0.96875 C 0.535156 -0.875 0.703125 -0.796875 0.890625 -0.734375 C 1.085938 -0.671875 1.28125 -0.640625 1.46875 -0.640625 C 1.8125 -0.640625 1.984375 -0.726562 1.984375 -0.90625 C 1.984375 -1 1.929688 -1.066406 1.828125 -1.109375 C 1.734375 -1.160156 1.578125 -1.207031 1.359375 -1.25 C 1.109375 -1.300781 0.898438 -1.359375 0.734375 -1.421875 C 0.578125 -1.484375 0.441406 -1.578125 0.328125 -1.703125 C 0.210938 -1.835938 0.15625 -2.019531 0.15625 -2.25 C 0.15625 -2.445312 0.207031 -2.625 0.3125 -2.78125 C 0.414062 -2.9375 0.570312 -3.0625 0.78125 -3.15625 C 1 -3.25 1.265625 -3.296875 1.578125 -3.296875 C 1.796875 -3.296875 2.003906 -3.269531 2.203125 -3.21875 C 2.410156 -3.164062 2.59375 -3.097656 2.75 -3.015625 L 2.46875 -2.328125 C 2.164062 -2.492188 1.867188 -2.578125 1.578125 -2.578125 C 1.390625 -2.578125 1.253906 -2.550781 1.171875 -2.5 C 1.097656 -2.445312 1.0625 -2.378906 1.0625 -2.296875 C 1.0625 -2.203125 1.109375 -2.132812 1.203125 -2.09375 C 1.296875 -2.050781 1.453125 -2.007812 1.671875 -1.96875 C 1.921875 -1.914062 2.125 -1.859375 2.28125 -1.796875 C 2.445312 -1.734375 2.585938 -1.632812 2.703125 -1.5 C 2.828125 -1.375 2.890625 -1.203125 2.890625 -0.984375 C 2.890625 -0.785156 2.832031 -0.609375 2.71875 -0.453125 C 2.613281 -0.296875 2.453125 -0.171875 2.234375 -0.078125 C 2.023438 0.015625 1.765625 0.0625 1.453125 0.0625 Z M 1.453125 0.0625 "/></g></g></g></svg>